# generated by scripts/generate_local_models.py
v 0.03602 -0.02062 0.28000
v 0.03378 0.02411 0.28000
v 0.04647 -0.03036 0.33505
v 0.04320 0.03485 0.33505
v 0.05786 -0.03725 0.38990
v 0.05385 0.04284 0.38990
v 0.07124 -0.04050 0.44426
v 0.06683 0.04742 0.44426
v 0.08735 -0.03970 0.49783
v 0.08294 0.04822 0.49783
v 0.10678 -0.03480 0.55021
v 0.10276 0.04529 0.55021
v 0.13001 -0.02618 0.60092
v 0.12674 0.03904 0.60092
v 0.15742 -0.01454 0.64938
v 0.15518 0.03019 0.64938
v 0.18927 -0.00087 0.69492
v 0.18823 0.01978 0.69492
v 0.22599 0.00731 0.73680
v 0.22559 0.01530 0.73680
v 0.26752 0.00939 0.77423
v 0.26712 0.01738 0.77423
v 0.01140 -0.02246 0.28000
v 0.01088 0.02271 0.28000
v 0.02571 -0.03266 0.33254
v 0.02494 0.03324 0.33254
v 0.04101 -0.04001 0.38480
v 0.04008 0.04094 0.38480
v 0.05835 -0.04377 0.43640
v 0.05732 0.04510 0.43640
v 0.07841 -0.04353 0.48699
v 0.07739 0.04533 0.48699
v 0.10176 -0.03931 0.53613
v 0.10082 0.04165 0.53613
v 0.12879 -0.03147 0.58332
v 0.12803 0.03443 0.58332
v 0.15980 -0.02074 0.62796
v 0.15928 0.02443 0.62796
v 0.19496 -0.00815 0.66938
v 0.19472 0.01265 0.66938
v 0.23433 -0.00129 0.70688
v 0.23424 0.00670 0.70688
v 0.27777 -0.00079 0.73966
v 0.27768 0.00721 0.73966
v 0.03637 -0.00892 0.28000
v 0.02380 0.02891 0.28000
v 0.05206 -0.01306 0.32489
v 0.03389 0.04162 0.32489
v 0.06826 -0.01448 0.36936
v 0.04601 0.05245 0.36936
v 0.08604 -0.01215 0.41283
v 0.06166 0.06123 0.41283
v 0.10612 -0.00547 0.45468
v 0.08174 0.06790 0.45468
v 0.12907 0.00573 0.49417
v 0.10683 0.07266 0.49417
v 0.15532 0.02125 0.53038
v 0.13715 0.07594 0.53038
v 0.18514 0.04052 0.56229
v 0.17257 0.07835 0.56229
v 0.21857 0.06263 0.58879
v 0.21259 0.08064 0.58879
v 0.25712 0.08123 0.60874
v 0.25460 0.08882 0.60874
v 0.30007 0.09550 0.62104
v 0.29755 0.10309 0.62104
v 0.01221 -0.01238 0.28000
v -0.00947 0.01459 0.28000
v 0.02386 -0.01254 0.33708
v -0.00712 0.02600 0.33708
v 0.03532 -0.01024 0.39392
v -0.00242 0.03669 0.39392
v 0.04735 -0.00421 0.45018
v 0.00606 0.04714 0.45018
v 0.06052 0.00639 0.50543
v 0.01924 0.05774 0.50543
v 0.07543 0.02201 0.55910
v 0.03769 0.06894 0.55910
v 0.09265 0.04277 0.61048
v 0.06167 0.08131 0.61048
v 0.11281 0.06850 0.65870
v 0.09112 0.09547 0.65870
v 0.13645 0.09870 0.70278
v 0.12569 0.11208 0.70278
v 0.16690 0.12906 0.74165
v 0.16189 0.13529 0.74165
v 0.20413 0.15900 0.77414
v 0.19912 0.16523 0.77414
v 0.02823 -0.00309 0.28000
v 0.00446 0.02804 0.28000
v 0.04919 0.00198 0.32408
v 0.01488 0.04693 0.32408
v 0.06956 0.00960 0.36766
v 0.02759 0.06457 0.36766
v 0.08983 0.02089 0.41015
v 0.04383 0.08115 0.41015
v 0.11033 0.03655 0.45099
v 0.06434 0.09680 0.45099
v 0.13145 0.05684 0.48953
v 0.08948 0.11182 0.48953
v 0.15360 0.08170 0.52509
v 0.11929 0.12664 0.52509
v 0.17724 0.11067 0.55686
v 0.15348 0.14180 0.55686
v 0.20279 0.14302 0.58403
v 0.19141 0.15792 0.58403
v 0.23383 0.17347 0.60572
v 0.22897 0.17983 0.60572
v 0.27022 0.20126 0.62109
v 0.26537 0.20762 0.62109
v 0.01740 -0.00080 0.28000
v -0.00936 0.01469 0.28000
v 0.02651 0.00219 0.32235
v -0.01130 0.02408 0.32235
v 0.03465 0.00699 0.36450
v -0.01119 0.03353 0.36450
v 0.04197 0.01477 0.40618
v -0.00809 0.04376 0.40618
v 0.04865 0.02629 0.44701
v -0.00142 0.05528 0.44701
v 0.05495 0.04205 0.48654
v 0.00911 0.06859 0.48654
v 0.06129 0.06226 0.52419
v 0.02349 0.08416 0.52419
v 0.06820 0.08693 0.55925
v 0.04144 0.10242 0.55925
v 0.07623 0.11579 0.59094
v 0.06247 0.12375 0.59094
v 0.08937 0.14636 0.61838
v 0.08244 0.15037 0.61838
v 0.10776 0.17813 0.64067
v 0.10084 0.18214 0.64067
v 0.03398 0.02468 0.28000
v -0.00875 0.04107 0.28000
v 0.04591 0.02636 0.31762
v -0.01649 0.05030 0.31762
v 0.05540 0.02975 0.35513
v -0.02129 0.05917 0.35513
v 0.06202 0.03578 0.39235
v -0.02217 0.06809 0.39235
v 0.06559 0.04509 0.42910
v -0.01860 0.07739 0.42910
v 0.06625 0.05804 0.46512
v -0.01043 0.08746 0.46512
v 0.06448 0.07478 0.50012
v 0.00208 0.09872 0.50012
v 0.06107 0.09528 0.53371
v 0.01833 0.11168 0.53371
v 0.05703 0.11931 0.56548
v 0.03741 0.12684 0.56548
v 0.05960 0.14417 0.59494
v 0.05213 0.14704 0.59494
v 0.06935 0.16959 0.62156
v 0.06188 0.17245 0.62156
v 0.02323 0.01941 0.28000
v -0.01887 0.02367 0.28000
v 0.03469 0.03768 0.33143
v -0.02644 0.04387 0.33143
v 0.04364 0.05706 0.38253
v -0.03133 0.06464 0.38253
v 0.04948 0.07845 0.43293
v -0.03276 0.08677 0.43293
v 0.05191 0.10248 0.48228
v -0.03033 0.11080 0.48228
v 0.05097 0.12957 0.53021
v -0.02399 0.13715 0.53021
v 0.04707 0.16003 0.57630
v -0.01407 0.16621 0.57630
v 0.04089 0.19402 0.62008
v -0.00121 0.19828 0.62008
v 0.03339 0.23160 0.66103
v 0.01366 0.23359 0.66103
v 0.03154 0.27208 0.69860
v 0.02358 0.27288 0.69860
v 0.03592 0.31533 0.73220
v 0.02796 0.31614 0.73220
v 0.01685 0.01742 0.28000
v -0.02019 0.01341 0.28000
v 0.02315 0.03507 0.33280
v -0.03012 0.02931 0.33280
v 0.02713 0.05333 0.38531
v -0.03791 0.04628 0.38531
v 0.02814 0.07296 0.43723
v -0.04310 0.06525 0.43723
v 0.02581 0.09451 0.48824
v -0.04543 0.08680 0.48824
v 0.02008 0.11845 0.53800
v -0.04496 0.11141 0.53800
v 0.01123 0.14514 0.58613
v -0.04203 0.13938 0.58613
v -0.00020 0.17493 0.63219
v -0.03724 0.17092 0.63219
v -0.01343 0.20805 0.67568
v -0.03140 0.20610 0.67568
v -0.02252 0.24523 0.71608
v -0.03048 0.24437 0.71608
v -0.02699 0.28650 0.75281
v -0.03494 0.28564 0.75281
v 0.01640 0.02839 0.28000
v -0.02778 0.01742 0.28000
v 0.02428 0.04009 0.31990
v -0.04021 0.02408 0.31990
v 0.02909 0.05225 0.35950
v -0.05015 0.03258 0.35950
v 0.02983 0.06586 0.39838
v -0.05717 0.04426 0.39838
v 0.02593 0.08156 0.43605
v -0.06107 0.05996 0.43605
v 0.01725 0.09992 0.47190
v -0.06199 0.08025 0.47190
v 0.00410 0.12136 0.50517
v -0.06039 0.10534 0.50517
v -0.01284 0.14617 0.53497
v -0.05702 0.13520 0.53497
v -0.03254 0.17447 0.56034
v -0.05285 0.16943 0.56034
v -0.04745 0.20770 0.58025
v -0.05521 0.20577 0.58025
v -0.05678 0.24528 0.59373
v -0.06455 0.24335 0.59373
v 0.01301 0.01961 0.28000
v -0.02328 -0.00343 0.28000
v 0.01710 0.03136 0.33017
v -0.03565 -0.00213 0.33017
v 0.01836 0.04259 0.38016
v -0.04636 0.00151 0.38016
v 0.01561 0.05388 0.42971
v -0.05540 0.00881 0.42971
v 0.00812 0.06567 0.47851
v -0.06289 0.02059 0.47851
v -0.00441 0.07846 0.52615
v -0.06913 0.03738 0.52615
v -0.02192 0.09283 0.57213
v -0.07468 0.05934 0.57213
v -0.04401 0.10943 0.61581
v -0.08030 0.08640 0.61581
v -0.06996 0.12892 0.65649
v -0.08689 0.11817 0.65649
v -0.09374 0.15514 0.69337
v -0.10050 0.15085 0.69337
v -0.11476 0.18825 0.72560
v -0.12152 0.18396 0.72560
v 0.01087 0.02468 0.28000
v -0.02624 -0.00620 0.28000
v 0.01504 0.03721 0.31932
v -0.03932 -0.00803 0.31932
v 0.01623 0.04854 0.35846
v -0.05068 -0.00714 0.35846
v 0.01316 0.05893 0.39713
v -0.06034 -0.00224 0.39713
v 0.00510 0.06862 0.43502
v -0.06841 0.00746 0.43502
v -0.00831 0.07802 0.47170
v -0.07522 0.02235 0.47170
v -0.02696 0.08769 0.50663
v -0.08133 0.04245 0.50663
v -0.05040 0.09830 0.53917
v -0.08750 0.06742 0.53917
v -0.07780 0.11060 0.56860
v -0.09462 0.09661 0.56860
v -0.10278 0.12976 0.59413
v -0.10893 0.12465 0.59413
v -0.12458 0.15596 0.61494
v -0.13073 0.15085 0.61494
v -0.02447 0.03134 0.28000
v -0.03971 0.00197 0.28000
v -0.03879 0.04665 0.32728
v -0.06047 0.00486 0.32728
v -0.05520 0.06089 0.37397
v -0.08157 0.01008 0.37397
v -0.07516 0.07426 0.41931
v -0.10399 0.01871 0.41931
v -0.09955 0.08691 0.46257
v -0.12837 0.03136 0.46257
v -0.12885 0.09911 0.50289
v -0.15521 0.04830 0.50289
v -0.16320 0.11121 0.53929
v -0.18489 0.06943 0.53929
v -0.20236 0.12366 0.57070
v -0.21761 0.09429 0.57070
v -0.24572 0.13689 0.59596
v -0.25339 0.12212 0.59596
v -0.29031 0.15516 0.61394
v -0.29399 0.14806 0.61394
v -0.33498 0.17834 0.62357
v -0.33867 0.17124 0.62357
v -0.00016 0.01856 0.28000
v -0.01319 -0.01305 0.28000
v -0.01296 0.03174 0.31727
v -0.03156 -0.01338 0.31727
v -0.02733 0.04340 0.35414
v -0.04997 -0.01153 0.35414
v -0.04426 0.05339 0.39013
v -0.06903 -0.00669 0.39013
v -0.06436 0.06168 0.42478
v -0.08913 0.00159 0.42478
v -0.08801 0.06841 0.45760
v -0.11065 0.01348 0.45760
v -0.11531 0.07392 0.48803
v -0.13390 0.02881 0.48803
v -0.14615 0.07874 0.51545
v -0.15919 0.04713 0.51545
v -0.18022 0.08350 0.53921
v -0.18670 0.06775 0.53921
v -0.21523 0.09305 0.55862
v -0.21828 0.08565 0.55862
v -0.25064 0.10764 0.57300
v -0.25369 0.10025 0.57300
v -0.00842 0.02102 0.28000
v -0.01071 -0.01996 0.28000
v -0.01956 0.03087 0.32947
v -0.02288 -0.02850 0.32947
v -0.03189 0.03827 0.37869
v -0.03595 -0.03448 0.37869
v -0.04650 0.04261 0.42731
v -0.05096 -0.03716 0.42731
v -0.06415 0.04359 0.47497
v -0.06860 -0.03617 0.47497
v -0.08537 0.04125 0.52123
v -0.08943 -0.03149 0.52123
v -0.11056 0.03596 0.56557
v -0.11388 -0.02342 0.56557
v -0.13996 0.02837 0.60736
v -0.14225 -0.01261 0.60736
v -0.17365 0.01941 0.64591
v -0.17474 0.00005 0.64591
v -0.21122 0.01581 0.68043
v -0.21167 0.00782 0.68043
v -0.25241 0.01811 0.71013
v -0.25286 0.01012 0.71013
v -0.02594 0.02478 0.28000
v -0.03314 -0.01374 0.28000
v -0.04004 0.03627 0.33318
v -0.05043 -0.01936 0.33318
v -0.05561 0.04560 0.38603
v -0.06833 -0.02244 0.38603
v -0.07382 0.05239 0.43815
v -0.08776 -0.02219 0.43815
v -0.09544 0.05643 0.48913
v -0.10938 -0.01814 0.48913
v -0.12100 0.05783 0.53851
v -0.13372 -0.01022 0.53851
v -0.15085 0.05698 0.58575
v -0.16124 0.00136 0.58575
v -0.18512 0.05454 0.63022
v -0.19233 0.01601 0.63022
v -0.22380 0.05137 0.67122
v -0.22725 0.03294 0.67122
v -0.26568 0.05373 0.70800
v -0.26715 0.04586 0.70800
v -0.31045 0.06210 0.73976
v -0.31192 0.05423 0.73976
v -0.02661 0.01511 0.28000
v -0.02600 -0.01614 0.28000
v -0.03321 0.02146 0.32498
v -0.03235 -0.02274 0.32498
v -0.04111 0.02602 0.36975
v -0.04006 -0.02760 0.36975
v -0.05164 0.02829 0.41396
v -0.05050 -0.03028 0.41396
v -0.06572 0.02801 0.45717
v -0.06458 -0.03056 0.45717
v -0.08401 0.02518 0.49875
v -0.08296 -0.02844 0.49875
v -0.10698 0.02002 0.53791
v -0.10612 -0.02418 0.53791
v -0.13486 0.01300 0.57369
v -0.13425 -0.01825 0.57369
v -0.16762 0.00474 0.60502
v -0.16731 -0.01127 0.60502
v -0.20499 -0.00000 0.63075
v -0.20484 -0.00800 0.63075
v -0.24628 -0.00081 0.64972
v -0.24613 -0.00881 0.64972
v -0.03414 0.01112 0.28000
v -0.01644 -0.03193 0.28000
v -0.04804 0.01703 0.32730
v -0.02216 -0.04590 0.32730
v -0.06186 0.01979 0.37434
v -0.03004 -0.05758 0.37434
v -0.07637 0.01826 0.42074
v -0.04143 -0.06670 0.42074
v -0.09214 0.01177 0.46612
v -0.05720 -0.07319 0.46612
v -0.10971 0.00011 0.50996
v -0.07789 -0.07726 0.50996
v -0.12960 -0.01651 0.55166
v -0.10372 -0.07944 0.55166
v -0.15235 -0.03749 0.59048
v -0.13465 -0.08054 0.59048
v -0.17843 -0.06187 0.62563
v -0.17033 -0.08156 0.62563
v -0.21069 -0.08232 0.65621
v -0.20764 -0.08972 0.65621
v -0.24904 -0.09809 0.68131
v -0.24600 -0.10549 0.68131
v -0.04347 -0.00140 0.28000
v -0.01938 -0.03893 0.28000
v -0.06551 -0.00342 0.32421
v -0.03041 -0.05813 0.32421
v -0.08670 -0.00821 0.36808
v -0.04359 -0.07539 0.36808
v -0.10727 -0.01678 0.41120
v -0.05995 -0.09052 0.41120
v -0.12746 -0.02974 0.45321
v -0.08015 -0.10348 0.45321
v -0.14759 -0.04728 0.49374
v -0.10449 -0.11446 0.49374
v -0.16811 -0.06925 0.53237
v -0.13300 -0.12396 0.53237
v -0.18954 -0.09513 0.56865
v -0.16546 -0.13266 0.56865
v -0.21252 -0.12412 0.60206
v -0.20139 -0.14147 0.60206
v -0.24105 -0.14992 0.63208
v -0.23673 -0.15665 0.63208
v -0.27535 -0.17193 0.65815
v -0.27103 -0.17866 0.65815
v -0.03972 -0.00125 0.28000
v -0.01260 -0.03769 0.28000
v -0.05222 0.00245 0.33248
v -0.01264 -0.05072 0.33248
v -0.06391 0.00319 0.38478
v -0.01529 -0.06214 0.38478
v -0.07528 -0.00030 0.43665
v -0.02190 -0.07202 0.43665
v -0.08671 -0.00881 0.48776
v -0.03333 -0.08053 0.48776
v -0.09870 -0.02270 0.53770
v -0.05008 -0.08803 0.53770
v -0.11187 -0.04195 0.58596
v -0.07229 -0.09512 0.58596
v -0.12693 -0.06616 0.63190
v -0.09981 -0.10260 0.63190
v -0.14465 -0.09464 0.67481
v -0.13218 -0.11140 0.67481
v -0.16961 -0.12125 0.71386
v -0.16484 -0.12767 0.71386
v -0.20207 -0.14541 0.74819
v -0.19729 -0.15183 0.74819
v -0.02294 0.00801 0.28000
v 0.01103 -0.02166 0.28000
v -0.03991 0.00431 0.32861
v 0.00964 -0.03897 0.32861
v -0.05558 -0.00221 0.37683
v 0.00529 -0.05537 0.37683
v -0.07022 -0.01297 0.42419
v -0.00340 -0.07133 0.42419
v -0.08410 -0.02886 0.47015
v -0.01728 -0.08722 0.47015
v -0.09761 -0.05034 0.51407
v -0.03674 -0.10350 0.51407
v -0.11131 -0.07745 0.55519
v -0.06176 -0.12072 0.55519
v -0.12587 -0.10985 0.59264
v -0.09190 -0.13951 0.59264
v -0.14203 -0.14683 0.62545
v -0.12637 -0.16050 0.62545
v -0.16528 -0.18317 0.65260
v -0.15925 -0.18843 0.65260
v -0.19570 -0.21800 0.67305
v -0.18968 -0.22326 0.67305
v -0.02506 -0.01365 0.28000
v 0.00574 -0.02795 0.28000
v -0.03580 -0.01960 0.32416
v 0.00812 -0.04000 0.32416
v -0.04530 -0.02757 0.36801
v 0.00816 -0.05239 0.36801
v -0.05362 -0.03893 0.41111
v 0.00485 -0.06608 0.41111
v -0.06089 -0.05459 0.45295
v -0.00242 -0.08175 0.45295
v -0.06737 -0.07511 0.49287
v -0.01391 -0.09994 0.49287
v -0.07348 -0.10073 0.53005
v -0.02955 -0.12113 0.53005
v -0.07973 -0.13138 0.56356
v -0.04893 -0.14568 0.56356
v -0.08673 -0.16664 0.59234
v -0.07136 -0.17378 0.59234
v -0.09910 -0.20391 0.61529
v -0.09185 -0.20728 0.61529
v -0.11693 -0.24230 0.63133
v -0.10968 -0.24567 0.63133
v -0.02712 -0.01630 0.28000
v 0.02019 -0.02436 0.28000
v -0.03995 -0.02525 0.32202
v 0.02934 -0.03705 0.32202
v -0.04999 -0.03595 0.36369
v 0.03527 -0.05047 0.36369
v -0.05666 -0.04975 0.40455
v 0.03699 -0.06570 0.40455
v -0.05969 -0.06755 0.44405
v 0.03396 -0.08350 0.44405
v -0.05917 -0.08990 0.48153
v 0.02608 -0.10442 0.48153
v -0.05559 -0.11709 0.51616
v 0.01370 -0.12889 0.51616
v -0.04973 -0.14908 0.54703
v -0.00242 -0.15714 0.54703
v -0.04264 -0.18553 0.57310
v -0.02117 -0.18918 0.57310
v -0.04231 -0.22458 0.59330
v -0.03442 -0.22593 0.59330
v -0.04925 -0.26534 0.60660
v -0.04136 -0.26668 0.60660
v -0.01799 -0.03740 0.28000
v 0.02592 -0.03241 0.28000
v -0.02612 -0.05513 0.33338
v 0.03783 -0.04786 0.33338
v -0.03139 -0.07369 0.38639
v 0.04713 -0.06477 0.38639
v -0.03294 -0.09414 0.43856
v 0.05323 -0.08434 0.43856
v -0.03032 -0.11720 0.48945
v 0.05585 -0.10741 0.48945
v -0.02346 -0.14345 0.53851
v 0.05506 -0.13452 0.53851
v -0.01269 -0.17334 0.58513
v 0.05127 -0.16607 0.58513
v 0.00132 -0.20719 0.62857
v 0.04522 -0.20220 0.62857
v 0.01757 -0.24521 0.66806
v 0.03791 -0.24290 0.66806
v 0.02873 -0.28812 0.70273
v 0.03667 -0.28721 0.70273
v 0.03413 -0.33566 0.73169
v 0.04208 -0.33475 0.73169
v -0.00489 -0.04096 0.28000
v 0.02583 -0.03217 0.28000
v -0.00745 -0.05626 0.33469
v 0.03609 -0.04379 0.33469
v -0.00792 -0.07225 0.38905
v 0.04495 -0.05711 0.38905
v -0.00549 -0.09002 0.44264
v 0.05229 -0.07348 0.44264
v 0.00032 -0.11032 0.49500
v 0.05810 -0.09377 0.49500
v 0.00969 -0.13375 0.54556
v 0.06256 -0.11862 0.54556
v 0.02249 -0.16085 0.59366
v 0.06604 -0.14838 0.59366
v 0.03835 -0.19199 0.63849
v 0.06906 -0.18320 0.63849
v 0.05666 -0.22745 0.67919
v 0.07228 -0.22297 0.67919
v 0.07269 -0.26843 0.71479
v 0.08038 -0.26623 0.71479
v 0.08593 -0.31470 0.74430
v 0.09362 -0.31250 0.74430
v -0.00360 -0.04426 0.28000
v 0.03558 -0.02658 0.28000
v -0.00483 -0.06524 0.33082
v 0.05212 -0.03953 0.33082
v -0.00313 -0.08624 0.38117
v 0.06675 -0.05470 0.38117
v 0.00267 -0.10813 0.43047
v 0.07933 -0.07353 0.43047
v 0.01321 -0.13150 0.47813
v 0.08988 -0.09689 0.47813
v 0.02875 -0.15686 0.52350
v 0.09862 -0.12532 0.52350
v 0.04910 -0.18471 0.56580
v 0.10605 -0.15901 0.56580
v 0.07369 -0.21549 0.60417
v 0.11287 -0.19781 0.60417
v 0.10163 -0.24952 0.63766
v 0.11991 -0.24127 0.63766
v 0.12627 -0.28946 0.66528
v 0.13356 -0.28617 0.66528
v 0.14683 -0.33502 0.68605
v 0.15412 -0.33173 0.68605
v 0.00911 -0.03941 0.28000
v 0.03614 -0.01817 0.28000
v 0.00666 -0.04820 0.32565
v 0.04526 -0.01787 0.32565
v 0.00631 -0.05641 0.37119
v 0.05332 -0.01947 0.37119
v 0.00900 -0.06437 0.41647
v 0.06042 -0.02396 0.41647
v 0.01530 -0.07239 0.46129
v 0.06672 -0.03198 0.46129
v 0.02552 -0.08084 0.50539
v 0.07252 -0.04390 0.50539
v 0.03967 -0.09019 0.54844
v 0.07827 -0.05986 0.54844
v 0.05753 -0.10101 0.59005
v 0.08456 -0.07977 0.59005
v 0.07866 -0.11391 0.62973
v 0.09210 -0.10335 0.62973
v 0.09890 -0.13231 0.66695
v 0.10519 -0.12736 0.66695
v 0.11789 -0.15648 0.70112
v 0.12418 -0.15153 0.70112
v 0.01339 -0.03082 0.28000
v 0.03309 0.00590 0.28000
v 0.01834 -0.04412 0.31881
v 0.04690 0.00913 0.31881
v 0.02532 -0.05560 0.35736
v 0.06033 0.00967 0.35736
v 0.03548 -0.06512 0.39530
v 0.07387 0.00648 0.39530
v 0.04952 -0.07265 0.43226
v 0.08791 -0.00106 0.43226
v 0.06786 -0.07842 0.46780
v 0.10287 -0.01314 0.46780
v 0.09062 -0.08289 0.50139
v 0.11918 -0.02963 0.50139
v 0.11764 -0.08673 0.53242
v 0.13733 -0.05001 0.53242
v 0.14851 -0.09076 0.56022
v 0.15777 -0.07349 0.56022
v 0.17984 -0.10098 0.58405
v 0.18362 -0.09393 0.58405
v 0.21105 -0.11772 0.60315
v 0.21483 -0.11067 0.60315
v -0.00285 -0.02072 0.28000
v 0.01579 0.01372 0.28000
v 0.00883 -0.03692 0.33432
v 0.03575 0.01279 0.33432
v 0.02282 -0.05168 0.38819
v 0.05575 0.00914 0.38819
v 0.04059 -0.06507 0.44102
v 0.07667 0.00158 0.44102
v 0.06306 -0.07723 0.49223
v 0.09914 -0.01058 0.49223
v 0.09078 -0.08847 0.54113
v 0.12370 -0.02765 0.54113
v 0.12398 -0.09926 0.58691
v 0.15089 -0.04955 0.58691
v 0.16253 -0.11026 0.62866
v 0.18118 -0.07582 0.62866
v 0.20600 -0.12218 0.66537
v 0.21492 -0.10570 0.66537
v 0.25107 -0.14048 0.69598
v 0.25488 -0.13344 0.69598
v 0.29698 -0.16534 0.71942
v 0.30079 -0.15830 0.71942
v -0.00417 -0.02236 0.28000
v 0.01256 0.01896 0.28000
v 0.00811 -0.03833 0.32284
v 0.03249 0.02189 0.32284
v 0.02247 -0.05213 0.36521
v 0.05241 0.02182 0.36521
v 0.04020 -0.06351 0.40655
v 0.07306 0.01766 0.40655
v 0.06210 -0.07238 0.44628
v 0.09497 0.00879 0.44628
v 0.08864 -0.07892 0.48378
v 0.11857 -0.00497 0.48378
v 0.11992 -0.08360 0.51829
v 0.14430 -0.02338 0.51829
v 0.15576 -0.08711 0.54902
v 0.17249 -0.04579 0.54902
v 0.19565 -0.09033 0.57508
v 0.20338 -0.07123 0.57508
v 0.23643 -0.10004 0.59557
v 0.23943 -0.09262 0.59557
v 0.27726 -0.11657 0.60961
v 0.28026 -0.10915 0.60961
vn 0.9828 0.0492 -0.1779
vn 0.9828 0.0492 -0.1779
vn 0.9792 0.0490 -0.1971
vn 0.9792 0.0490 -0.1971
vn 0.9705 0.0486 -0.2360
vn 0.9705 0.0486 -0.2360
vn 0.9563 0.0479 -0.2883
vn 0.9563 0.0479 -0.2883
vn 0.9351 0.0468 -0.3512
vn 0.9351 0.0468 -0.3512
vn 0.9052 0.0453 -0.4225
vn 0.9052 0.0453 -0.4225
vn 0.8651 0.0433 -0.4998
vn 0.8651 0.0433 -0.4998
vn 0.8130 0.0407 -0.5808
vn 0.8130 0.0407 -0.5808
vn 0.7478 0.0374 -0.6629
vn 0.7478 0.0374 -0.6629
vn 0.6682 0.0335 -0.7432
vn 0.6682 0.0335 -0.7432
vn 0.9653 0.0111 -0.2607
vn 0.9653 0.0111 -0.2607
vn 0.9600 0.0111 -0.2796
vn 0.9600 0.0111 -0.2796
vn 0.9481 0.0109 -0.3177
vn 0.9481 0.0109 -0.3177
vn 0.9295 0.0107 -0.3688
vn 0.9295 0.0107 -0.3688
vn 0.9029 0.0104 -0.4298
vn 0.9029 0.0104 -0.4298
vn 0.8669 0.0100 -0.4983
vn 0.8669 0.0100 -0.4983
vn 0.8201 0.0095 -0.5721
vn 0.8201 0.0095 -0.5721
vn 0.7612 0.0088 -0.6485
vn 0.7612 0.0088 -0.6485
vn 0.6888 0.0080 -0.7249
vn 0.6888 0.0080 -0.7249
vn 0.6023 0.0070 -0.7982
vn 0.6023 0.0070 -0.7982
vn 0.9083 0.3018 -0.2895
vn 0.9083 0.3018 -0.2895
vn 0.8997 0.2990 -0.3182
vn 0.8997 0.2990 -0.3182
vn 0.8795 0.2923 -0.3755
vn 0.8795 0.2923 -0.3755
vn 0.8469 0.2814 -0.4512
vn 0.8469 0.2814 -0.4512
vn 0.7989 0.2655 -0.5397
vn 0.7989 0.2655 -0.5397
vn 0.7327 0.2435 -0.6355
vn 0.7327 0.2435 -0.6355
vn 0.6457 0.2146 -0.7328
vn 0.6457 0.2146 -0.7328
vn 0.5362 0.1782 -0.8251
vn 0.5362 0.1782 -0.8251
vn 0.4036 0.1341 -0.9051
vn 0.4036 0.1341 -0.9051
vn 0.2490 0.0827 -0.9650
vn 0.2490 0.0827 -0.9650
vn 0.7699 0.6190 -0.1554
vn 0.7699 0.6190 -0.1554
vn 0.7667 0.6164 -0.1794
vn 0.7667 0.6164 -0.1794
vn 0.7589 0.6101 -0.2277
vn 0.7589 0.6101 -0.2277
vn 0.7452 0.5992 -0.2927
vn 0.7452 0.5992 -0.2927
vn 0.7239 0.5820 -0.3704
vn 0.7239 0.5820 -0.3704
vn 0.6930 0.5572 -0.4576
vn 0.6930 0.5572 -0.4576
vn 0.6505 0.5230 -0.5508
vn 0.6505 0.5230 -0.5508
vn 0.5946 0.4781 -0.6464
vn 0.5946 0.4781 -0.6464
vn 0.5242 0.4214 -0.7400
vn 0.5242 0.4214 -0.7400
vn 0.4383 0.3524 -0.8269
vn 0.4383 0.3524 -0.8269
vn 0.7254 0.5538 -0.4087
vn 0.7254 0.5538 -0.4087
vn 0.7173 0.5476 -0.4310
vn 0.7173 0.5476 -0.4310
vn 0.6993 0.5338 -0.4754
vn 0.6993 0.5338 -0.4754
vn 0.6720 0.5130 -0.5341
vn 0.6720 0.5130 -0.5341
vn 0.6344 0.4843 -0.6025
vn 0.6344 0.4843 -0.6025
vn 0.5851 0.4467 -0.6769
vn 0.5851 0.4467 -0.6769
vn 0.5230 0.3992 -0.7531
vn 0.5230 0.3992 -0.7531
vn 0.4471 0.3413 -0.8268
vn 0.4471 0.3413 -0.8268
vn 0.3570 0.2725 -0.8935
vn 0.3570 0.2725 -0.8935
vn 0.2530 0.1931 -0.9480
vn 0.2530 0.1931 -0.9480
vn 0.4941 0.8533 -0.1666
vn 0.4941 0.8533 -0.1666
vn 0.4918 0.8494 -0.1916
vn 0.4918 0.8494 -0.1916
vn 0.4862 0.8396 -0.2422
vn 0.4862 0.8396 -0.2422
vn 0.4764 0.8228 -0.3100
vn 0.4764 0.8228 -0.3100
vn 0.4612 0.7965 -0.3910
vn 0.4612 0.7965 -0.3910
vn 0.4392 0.7585 -0.4814
vn 0.4392 0.7585 -0.4814
vn 0.4091 0.7065 -0.5775
vn 0.4091 0.7065 -0.5775
vn 0.3697 0.6384 -0.6751
vn 0.3697 0.6384 -0.6751
vn 0.3201 0.5529 -0.7693
vn 0.3201 0.5529 -0.7693
vn 0.2601 0.4492 -0.8547
vn 0.2601 0.4492 -0.8547
vn 0.3540 0.9226 -0.1535
vn 0.3540 0.9226 -0.1535
vn 0.3528 0.9197 -0.1723
vn 0.3528 0.9197 -0.1723
vn 0.3502 0.9127 -0.2104
vn 0.3502 0.9127 -0.2104
vn 0.3457 0.9011 -0.2618
vn 0.3457 0.9011 -0.2618
vn 0.3389 0.8834 -0.3237
vn 0.3389 0.8834 -0.3237
vn 0.3292 0.8581 -0.3940
vn 0.3292 0.8581 -0.3940
vn 0.3161 0.8238 -0.4706
vn 0.3161 0.8238 -0.4706
vn 0.2989 0.7790 -0.5513
vn 0.2989 0.7790 -0.5513
vn 0.2771 0.7223 -0.6337
vn 0.2771 0.7223 -0.6337
vn 0.2504 0.6527 -0.7150
vn 0.2504 0.6527 -0.7150
vn 0.0942 0.9313 -0.3519
vn 0.0942 0.9313 -0.3519
vn 0.0936 0.9254 -0.3673
vn 0.0936 0.9254 -0.3673
vn 0.0923 0.9127 -0.3981
vn 0.0923 0.9127 -0.3981
vn 0.0904 0.8937 -0.4395
vn 0.0904 0.8937 -0.4395
vn 0.0878 0.8679 -0.4889
vn 0.0878 0.8679 -0.4889
vn 0.0844 0.8346 -0.5444
vn 0.0844 0.8346 -0.5444
vn 0.0802 0.7927 -0.6043
vn 0.0802 0.7927 -0.6043
vn 0.0750 0.7416 -0.6667
vn 0.0750 0.7416 -0.6667
vn 0.0688 0.6803 -0.7297
vn 0.0688 0.6803 -0.7297
vn 0.0615 0.6083 -0.7913
vn 0.0615 0.6083 -0.7913
vn -0.1025 0.9470 -0.3045
vn -0.1025 0.9470 -0.3045
vn -0.1020 0.9420 -0.3196
vn -0.1020 0.9420 -0.3196
vn -0.1008 0.9312 -0.3502
vn -0.1008 0.9312 -0.3502
vn -0.0990 0.9150 -0.3912
vn -0.0990 0.9150 -0.3912
vn -0.0966 0.8926 -0.4404
vn -0.0966 0.8926 -0.4404
vn -0.0934 0.8633 -0.4960
vn -0.0934 0.8633 -0.4960
vn -0.0894 0.8261 -0.5564
vn -0.0894 0.8261 -0.5564
vn -0.0845 0.7802 -0.6198
vn -0.0845 0.7802 -0.6198
vn -0.0784 0.7247 -0.6846
vn -0.0784 0.7247 -0.6846
vn -0.0713 0.6589 -0.7488
vn -0.0713 0.6589 -0.7488
vn -0.2345 0.9443 -0.2307
vn -0.2345 0.9443 -0.2307
vn -0.2327 0.9373 -0.2596
vn -0.2327 0.9373 -0.2596
vn -0.2285 0.9203 -0.3176
vn -0.2285 0.9203 -0.3176
vn -0.2214 0.8917 -0.3947
vn -0.2214 0.8917 -0.3947
vn -0.2107 0.8485 -0.4854
vn -0.2107 0.8485 -0.4854
vn -0.1955 0.7874 -0.5847
vn -0.1955 0.7874 -0.5847
vn -0.1751 0.7054 -0.6868
vn -0.1751 0.7054 -0.6868
vn -0.1491 0.6004 -0.7857
vn -0.1491 0.6004 -0.7857
vn -0.1171 0.4714 -0.8741
vn -0.1171 0.4714 -0.8741
vn -0.0792 0.3190 -0.9444
vn -0.0792 0.3190 -0.9444
vn -0.5297 0.8344 -0.1522
vn -0.5297 0.8344 -0.1522
vn -0.5278 0.8314 -0.1736
vn -0.5278 0.8314 -0.1736
vn -0.5232 0.8242 -0.2168
vn -0.5232 0.8242 -0.2168
vn -0.5153 0.8117 -0.2751
vn -0.5153 0.8117 -0.2751
vn -0.5030 0.7924 -0.3450
vn -0.5030 0.7924 -0.3450
vn -0.4854 0.7646 -0.4240
vn -0.4854 0.7646 -0.4240
vn -0.4612 0.7265 -0.5093
vn -0.4612 0.7265 -0.5093
vn -0.4295 0.6766 -0.5981
vn -0.4295 0.6766 -0.5981
vn -0.3894 0.6134 -0.6871
vn -0.3894 0.6134 -0.6871
vn -0.3403 0.5360 -0.7726
vn -0.3403 0.5360 -0.7726
vn -0.6298 0.7569 -0.1744
vn -0.6298 0.7569 -0.1744
vn -0.6268 0.7533 -0.1991
vn -0.6268 0.7533 -0.1991
vn -0.6195 0.7445 -0.2490
vn -0.6195 0.7445 -0.2490
vn -0.6069 0.7293 -0.3159
vn -0.6069 0.7293 -0.3159
vn -0.5874 0.7059 -0.3957
vn -0.5874 0.7059 -0.3957
vn -0.5594 0.6723 -0.4848
vn -0.5594 0.6723 -0.4848
vn -0.5213 0.6264 -0.5796
vn -0.5213 0.6264 -0.5796
vn -0.4714 0.5665 -0.6759
vn -0.4714 0.5665 -0.6759
vn -0.4090 0.4914 -0.7689
vn -0.4090 0.4914 -0.7689
vn -0.3333 0.4005 -0.8535
vn -0.3333 0.4005 -0.8535
vn -0.8190 0.4250 -0.3855
vn -0.8190 0.4250 -0.3855
vn -0.8086 0.4196 -0.4124
vn -0.8086 0.4196 -0.4124
vn -0.7854 0.4076 -0.4659
vn -0.7854 0.4076 -0.4659
vn -0.7493 0.3888 -0.5361
vn -0.7493 0.3888 -0.5361
vn -0.6984 0.3624 -0.6172
vn -0.6984 0.3624 -0.6172
vn -0.6305 0.3272 -0.7038
vn -0.6305 0.3272 -0.7038
vn -0.5440 0.2823 -0.7902
vn -0.5440 0.2823 -0.7902
vn -0.4376 0.2271 -0.8700
vn -0.4376 0.2271 -0.8700
vn -0.3114 0.1616 -0.9364
vn -0.3114 0.1616 -0.9364
vn -0.1668 0.0866 -0.9822
vn -0.1668 0.0866 -0.9822
vn -0.8424 0.3472 -0.4121
vn -0.8424 0.3472 -0.4121
vn -0.8332 0.3435 -0.4333
vn -0.8332 0.3435 -0.4333
vn -0.8133 0.3352 -0.4756
vn -0.8133 0.3352 -0.4756
vn -0.7831 0.3228 -0.5316
vn -0.7831 0.3228 -0.5316
vn -0.7417 0.3057 -0.5970
vn -0.7417 0.3057 -0.5970
vn -0.6877 0.2835 -0.6684
vn -0.6877 0.2835 -0.6684
vn -0.6198 0.2555 -0.7420
vn -0.6198 0.2555 -0.7420
vn -0.5369 0.2213 -0.8141
vn -0.5369 0.2213 -0.8141
vn -0.4386 0.1808 -0.8803
vn -0.4386 0.1808 -0.8803
vn -0.3249 0.1339 -0.9362
vn -0.3249 0.1339 -0.9362
vn -0.9718 0.0543 -0.2296
vn -0.9718 0.0543 -0.2296
vn -0.9667 0.0540 -0.2503
vn -0.9667 0.0540 -0.2503
vn -0.9550 0.0534 -0.2919
vn -0.9550 0.0534 -0.2919
vn -0.9362 0.0523 -0.3476
vn -0.9362 0.0523 -0.3476
vn -0.9087 0.0508 -0.4142
vn -0.9087 0.0508 -0.4142
vn -0.8709 0.0487 -0.4890
vn -0.8709 0.0487 -0.4890
vn -0.8209 0.0459 -0.5692
vn -0.8209 0.0459 -0.5692
vn -0.7571 0.0423 -0.6519
vn -0.7571 0.0423 -0.6519
vn -0.6782 0.0379 -0.7339
vn -0.6782 0.0379 -0.7339
vn -0.5833 0.0326 -0.8116
vn -0.5833 0.0326 -0.8116
vn -0.9415 0.1760 -0.2876
vn -0.9415 0.1760 -0.2876
vn -0.9356 0.1749 -0.3066
vn -0.9356 0.1749 -0.3066
vn -0.9227 0.1725 -0.3448
vn -0.9227 0.1725 -0.3448
vn -0.9026 0.1687 -0.3961
vn -0.9026 0.1687 -0.3961
vn -0.8742 0.1634 -0.4572
vn -0.8742 0.1634 -0.4572
vn -0.8363 0.1563 -0.5256
vn -0.8363 0.1563 -0.5256
vn -0.7873 0.1471 -0.5988
vn -0.7873 0.1471 -0.5988
vn -0.7259 0.1357 -0.6743
vn -0.7259 0.1357 -0.6743
vn -0.6511 0.1217 -0.7492
vn -0.6511 0.1217 -0.7492
vn -0.5622 0.1051 -0.8203
vn -0.5622 0.1051 -0.8203
vn -0.9896 -0.0193 -0.1425
vn -0.9896 -0.0193 -0.1425
vn -0.9849 -0.0192 -0.1718
vn -0.9849 -0.0192 -0.1718
vn -0.9728 -0.0190 -0.2308
vn -0.9728 -0.0190 -0.2308
vn -0.9506 -0.0186 -0.3098
vn -0.9506 -0.0186 -0.3098
vn -0.9148 -0.0179 -0.4036
vn -0.9148 -0.0179 -0.4036
vn -0.8614 -0.0168 -0.5076
vn -0.8614 -0.0168 -0.5076
vn -0.7872 -0.0154 -0.6165
vn -0.7872 -0.0154 -0.6165
vn -0.6893 -0.0135 -0.7243
vn -0.6893 -0.0135 -0.7243
vn -0.5661 -0.0111 -0.8243
vn -0.5661 -0.0111 -0.8243
vn -0.4173 -0.0081 -0.9087
vn -0.4173 -0.0081 -0.9087
vn -0.9025 -0.3711 -0.2187
vn -0.9025 -0.3711 -0.2187
vn -0.8974 -0.3690 -0.2420
vn -0.8974 -0.3690 -0.2420
vn -0.8854 -0.3641 -0.2890
vn -0.8854 -0.3641 -0.2890
vn -0.8657 -0.3560 -0.3518
vn -0.8657 -0.3560 -0.3518
vn -0.8365 -0.3440 -0.4266
vn -0.8365 -0.3440 -0.4266
vn -0.7955 -0.3272 -0.5100
vn -0.7955 -0.3272 -0.5100
vn -0.7408 -0.3047 -0.5987
vn -0.7408 -0.3047 -0.5987
vn -0.6705 -0.2758 -0.6887
vn -0.6705 -0.2758 -0.6887
vn -0.5834 -0.2399 -0.7759
vn -0.5834 -0.2399 -0.7759
vn -0.4788 -0.1969 -0.8556
vn -0.4788 -0.1969 -0.8556
vn -0.7691 -0.4935 -0.4061
vn -0.7691 -0.4935 -0.4061
vn -0.7631 -0.4896 -0.4219
vn -0.7631 -0.4896 -0.4219
vn -0.7501 -0.4813 -0.4536
vn -0.7501 -0.4813 -0.4536
vn -0.7309 -0.4690 -0.4959
vn -0.7309 -0.4690 -0.4959
vn -0.7051 -0.4524 -0.5460
vn -0.7051 -0.4524 -0.5460
vn -0.6720 -0.4312 -0.6020
vn -0.6720 -0.4312 -0.6020
vn -0.6310 -0.4049 -0.6618
vn -0.6310 -0.4049 -0.6618
vn -0.5812 -0.3729 -0.7233
vn -0.5812 -0.3729 -0.7233
vn -0.5222 -0.3351 -0.7843
vn -0.5222 -0.3351 -0.7843
vn -0.4535 -0.2910 -0.8424
vn -0.4535 -0.2910 -0.8424
vn -0.7934 -0.5905 -0.1473
vn -0.7934 -0.5905 -0.1473
vn -0.7907 -0.5885 -0.1684
vn -0.7907 -0.5885 -0.1684
vn -0.7841 -0.5836 -0.2111
vn -0.7841 -0.5836 -0.2111
vn -0.7727 -0.5751 -0.2686
vn -0.7727 -0.5751 -0.2686
vn -0.7551 -0.5620 -0.3376
vn -0.7551 -0.5620 -0.3376
vn -0.7296 -0.5430 -0.4157
vn -0.7296 -0.5430 -0.4157
vn -0.6946 -0.5170 -0.5002
vn -0.6946 -0.5170 -0.5002
vn -0.6487 -0.4828 -0.5883
vn -0.6487 -0.4828 -0.5883
vn -0.5904 -0.4395 -0.6769
vn -0.5904 -0.4395 -0.6769
vn -0.5190 -0.3863 -0.7625
vn -0.5190 -0.3863 -0.7625
vn -0.6323 -0.7240 -0.2759
vn -0.6323 -0.7240 -0.2759
vn -0.6273 -0.7183 -0.3008
vn -0.6273 -0.7183 -0.3008
vn -0.6160 -0.7053 -0.3508
vn -0.6160 -0.7053 -0.3508
vn -0.5978 -0.6845 -0.4172
vn -0.5978 -0.6845 -0.4172
vn -0.5713 -0.6542 -0.4956
vn -0.5713 -0.6542 -0.4956
vn -0.5349 -0.6125 -0.5820
vn -0.5349 -0.6125 -0.5820
vn -0.4872 -0.5578 -0.6720
vn -0.4872 -0.5578 -0.6720
vn -0.4268 -0.4887 -0.7609
vn -0.4268 -0.4887 -0.7609
vn -0.3531 -0.4043 -0.8437
vn -0.3531 -0.4043 -0.8437
vn -0.2660 -0.3046 -0.9146
vn -0.2660 -0.3046 -0.9146
vn -0.4109 -0.8849 -0.2193
vn -0.4109 -0.8849 -0.2193
vn -0.4080 -0.8787 -0.2479
vn -0.4080 -0.8787 -0.2479
vn -0.4011 -0.8637 -0.3052
vn -0.4011 -0.8637 -0.3052
vn -0.3893 -0.8384 -0.3815
vn -0.3893 -0.8384 -0.3815
vn -0.3714 -0.7999 -0.4715
vn -0.3714 -0.7999 -0.4715
vn -0.3460 -0.7451 -0.5702
vn -0.3460 -0.7451 -0.5702
vn -0.3118 -0.6714 -0.6723
vn -0.3118 -0.6714 -0.6723
vn -0.2678 -0.5767 -0.7718
vn -0.2678 -0.5767 -0.7718
vn -0.2136 -0.4599 -0.8619
vn -0.2136 -0.4599 -0.8619
vn -0.1492 -0.3213 -0.9351
vn -0.1492 -0.3213 -0.9351
vn -0.1624 -0.9538 -0.2528
vn -0.1624 -0.9538 -0.2528
vn -0.1611 -0.9459 -0.2816
vn -0.1611 -0.9459 -0.2816
vn -0.1579 -0.9274 -0.3392
vn -0.1579 -0.9274 -0.3392
vn -0.1527 -0.8966 -0.4157
vn -0.1527 -0.8966 -0.4157
vn -0.1449 -0.8506 -0.5054
vn -0.1449 -0.8506 -0.5054
vn -0.1339 -0.7862 -0.6032
vn -0.1339 -0.7862 -0.6032
vn -0.1193 -0.7006 -0.7035
vn -0.1193 -0.7006 -0.7035
vn -0.1008 -0.5916 -0.7999
vn -0.1008 -0.5916 -0.7999
vn -0.0781 -0.4585 -0.8853
vn -0.0781 -0.4585 -0.8853
vn -0.0514 -0.3020 -0.9519
vn -0.0514 -0.3020 -0.9519
vn 0.1078 -0.9483 -0.2986
vn 0.1078 -0.9483 -0.2986
vn 0.1070 -0.9417 -0.3191
vn 0.1070 -0.9417 -0.3191
vn 0.1054 -0.9269 -0.3601
vn 0.1054 -0.9269 -0.3601
vn 0.1028 -0.9040 -0.4150
vn 0.1028 -0.9040 -0.4150
vn 0.0991 -0.8716 -0.4801
vn 0.0991 -0.8716 -0.4801
vn 0.0941 -0.8280 -0.5527
vn 0.0941 -0.8280 -0.5527
vn 0.0877 -0.7718 -0.6298
vn 0.0877 -0.7718 -0.6298
vn 0.0797 -0.7015 -0.7082
vn 0.0797 -0.7015 -0.7082
vn 0.0700 -0.6159 -0.7847
vn 0.0700 -0.6159 -0.7847
vn 0.0585 -0.5146 -0.8555
vn 0.0585 -0.5146 -0.8555
vn 0.2666 -0.9314 -0.2479
vn 0.2666 -0.9314 -0.2479
vn 0.2650 -0.9257 -0.2700
vn 0.2650 -0.9257 -0.2700
vn 0.2613 -0.9126 -0.3145
vn 0.2613 -0.9126 -0.3145
vn 0.2552 -0.8916 -0.3740
vn 0.2552 -0.8916 -0.3740
vn 0.2465 -0.8610 -0.4448
vn 0.2465 -0.8610 -0.4448
vn 0.2345 -0.8190 -0.5238
vn 0.2345 -0.8190 -0.5238
vn 0.2186 -0.7635 -0.6077
vn 0.2186 -0.7635 -0.6077
vn 0.1984 -0.6930 -0.6931
vn 0.1984 -0.6930 -0.6931
vn 0.1736 -0.6062 -0.7761
vn 0.1736 -0.6062 -0.7761
vn 0.1439 -0.5025 -0.8525
vn 0.1439 -0.5025 -0.8525
vn 0.3863 -0.8559 -0.3438
vn 0.3863 -0.8559 -0.3438
vn 0.3827 -0.8479 -0.3668
vn 0.3827 -0.8479 -0.3668
vn 0.3747 -0.8302 -0.4127
vn 0.3747 -0.8302 -0.4127
vn 0.3623 -0.8027 -0.4736
vn 0.3623 -0.8027 -0.4736
vn 0.3449 -0.7640 -0.5452
vn 0.3449 -0.7640 -0.5452
vn 0.3216 -0.7124 -0.6237
vn 0.3216 -0.7124 -0.6237
vn 0.2917 -0.6462 -0.7053
vn 0.2917 -0.6462 -0.7053
vn 0.2546 -0.5640 -0.7855
vn 0.2546 -0.5640 -0.7855
vn 0.2100 -0.4652 -0.8600
vn 0.2100 -0.4652 -0.8600
vn 0.1578 -0.3497 -0.9235
vn 0.1578 -0.3497 -0.9235
vn 0.6137 -0.7808 -0.1175
vn 0.6137 -0.7808 -0.1175
vn 0.6122 -0.7790 -0.1356
vn 0.6122 -0.7790 -0.1356
vn 0.6087 -0.7745 -0.1723
vn 0.6087 -0.7745 -0.1723
vn 0.6025 -0.7666 -0.2219
vn 0.6025 -0.7666 -0.2219
vn 0.5929 -0.7544 -0.2819
vn 0.5929 -0.7544 -0.2819
vn 0.5788 -0.7364 -0.3502
vn 0.5788 -0.7364 -0.3502
vn 0.5593 -0.7116 -0.4252
vn 0.5593 -0.7116 -0.4252
vn 0.5335 -0.6788 -0.5047
vn 0.5335 -0.6788 -0.5047
vn 0.5004 -0.6367 -0.5867
vn 0.5004 -0.6367 -0.5867
vn 0.4594 -0.5845 -0.6688
vn 0.4594 -0.5845 -0.6688
vn 0.8499 -0.4558 -0.2645
vn 0.8499 -0.4558 -0.2645
vn 0.8440 -0.4526 -0.2876
vn 0.8440 -0.4526 -0.2876
vn 0.8307 -0.4455 -0.3340
vn 0.8307 -0.4455 -0.3340
vn 0.8092 -0.4340 -0.3960
vn 0.8092 -0.4340 -0.3960
vn 0.7782 -0.4173 -0.4694
vn 0.7782 -0.4173 -0.4694
vn 0.7355 -0.3945 -0.5508
vn 0.7355 -0.3945 -0.5508
vn 0.6795 -0.3644 -0.6367
vn 0.6795 -0.3644 -0.6367
vn 0.6086 -0.3264 -0.7232
vn 0.6086 -0.3264 -0.7232
vn 0.5217 -0.2798 -0.8059
vn 0.5217 -0.2798 -0.8059
vn 0.4184 -0.2244 -0.8801
vn 0.4184 -0.2244 -0.8801
vn 0.8348 -0.4520 -0.3144
vn 0.8348 -0.4520 -0.3144
vn 0.8277 -0.4481 -0.3377
vn 0.8277 -0.4481 -0.3377
vn 0.8118 -0.4395 -0.3844
vn 0.8118 -0.4395 -0.3844
vn 0.7869 -0.4260 -0.4464
vn 0.7869 -0.4260 -0.4464
vn 0.7514 -0.4068 -0.5195
vn 0.7514 -0.4068 -0.5195
vn 0.7035 -0.3809 -0.6000
vn 0.7035 -0.3809 -0.6000
vn 0.6416 -0.3473 -0.6839
vn 0.6416 -0.3473 -0.6839
vn 0.5641 -0.3054 -0.7671
vn 0.5641 -0.3054 -0.7671
vn 0.4704 -0.2547 -0.8449
vn 0.4704 -0.2547 -0.8449
vn 0.3602 -0.1950 -0.9123
vn 0.3602 -0.1950 -0.9123
vn 0.8589 -0.3478 -0.3759
vn 0.8589 -0.3478 -0.3759
vn 0.8496 -0.3440 -0.3999
vn 0.8496 -0.3440 -0.3999
vn 0.8288 -0.3355 -0.4479
vn 0.8288 -0.3355 -0.4479
vn 0.7967 -0.3225 -0.5112
vn 0.7967 -0.3225 -0.5112
vn 0.7517 -0.3043 -0.5850
vn 0.7517 -0.3043 -0.5850
vn 0.6921 -0.2802 -0.6652
vn 0.6921 -0.2802 -0.6652
vn 0.6161 -0.2494 -0.7471
vn 0.6161 -0.2494 -0.7471
vn 0.5225 -0.2115 -0.8260
vn 0.5225 -0.2115 -0.8260
vn 0.4108 -0.1663 -0.8964
vn 0.4108 -0.1663 -0.8964
vn 0.2814 -0.1139 -0.9528
vn 0.2814 -0.1139 -0.9528
vn -0.9828 -0.0492 0.1779
vn -0.9828 -0.0492 0.1779
vn -0.9792 -0.0490 0.1971
vn -0.9792 -0.0490 0.1971
vn -0.9705 -0.0486 0.2360
vn -0.9705 -0.0486 0.2360
vn -0.9563 -0.0479 0.2883
vn -0.9563 -0.0479 0.2883
vn -0.9351 -0.0468 0.3512
vn -0.9351 -0.0468 0.3512
vn -0.9052 -0.0453 0.4225
vn -0.9052 -0.0453 0.4225
vn -0.8651 -0.0433 0.4998
vn -0.8651 -0.0433 0.4998
vn -0.8130 -0.0407 0.5808
vn -0.8130 -0.0407 0.5808
vn -0.7478 -0.0374 0.6629
vn -0.7478 -0.0374 0.6629
vn -0.6682 -0.0335 0.7432
vn -0.6682 -0.0335 0.7432
vn -0.9653 -0.0111 0.2607
vn -0.9653 -0.0111 0.2607
vn -0.9600 -0.0111 0.2796
vn -0.9600 -0.0111 0.2796
vn -0.9481 -0.0109 0.3177
vn -0.9481 -0.0109 0.3177
vn -0.9295 -0.0107 0.3688
vn -0.9295 -0.0107 0.3688
vn -0.9029 -0.0104 0.4298
vn -0.9029 -0.0104 0.4298
vn -0.8669 -0.0100 0.4983
vn -0.8669 -0.0100 0.4983
vn -0.8201 -0.0095 0.5721
vn -0.8201 -0.0095 0.5721
vn -0.7612 -0.0088 0.6485
vn -0.7612 -0.0088 0.6485
vn -0.6888 -0.0080 0.7249
vn -0.6888 -0.0080 0.7249
vn -0.6023 -0.0070 0.7982
vn -0.6023 -0.0070 0.7982
vn -0.9083 -0.3018 0.2895
vn -0.9083 -0.3018 0.2895
vn -0.8997 -0.2990 0.3182
vn -0.8997 -0.2990 0.3182
vn -0.8795 -0.2923 0.3755
vn -0.8795 -0.2923 0.3755
vn -0.8469 -0.2814 0.4512
vn -0.8469 -0.2814 0.4512
vn -0.7989 -0.2655 0.5397
vn -0.7989 -0.2655 0.5397
vn -0.7327 -0.2435 0.6355
vn -0.7327 -0.2435 0.6355
vn -0.6457 -0.2146 0.7328
vn -0.6457 -0.2146 0.7328
vn -0.5362 -0.1782 0.8251
vn -0.5362 -0.1782 0.8251
vn -0.4036 -0.1341 0.9051
vn -0.4036 -0.1341 0.9051
vn -0.2490 -0.0827 0.9650
vn -0.2490 -0.0827 0.9650
vn -0.7699 -0.6190 0.1554
vn -0.7699 -0.6190 0.1554
vn -0.7667 -0.6164 0.1794
vn -0.7667 -0.6164 0.1794
vn -0.7589 -0.6101 0.2277
vn -0.7589 -0.6101 0.2277
vn -0.7452 -0.5992 0.2927
vn -0.7452 -0.5992 0.2927
vn -0.7239 -0.5820 0.3704
vn -0.7239 -0.5820 0.3704
vn -0.6930 -0.5572 0.4576
vn -0.6930 -0.5572 0.4576
vn -0.6505 -0.5230 0.5508
vn -0.6505 -0.5230 0.5508
vn -0.5946 -0.4781 0.6464
vn -0.5946 -0.4781 0.6464
vn -0.5242 -0.4214 0.7400
vn -0.5242 -0.4214 0.7400
vn -0.4383 -0.3524 0.8269
vn -0.4383 -0.3524 0.8269
vn -0.7254 -0.5538 0.4087
vn -0.7254 -0.5538 0.4087
vn -0.7173 -0.5476 0.4310
vn -0.7173 -0.5476 0.4310
vn -0.6993 -0.5338 0.4754
vn -0.6993 -0.5338 0.4754
vn -0.6720 -0.5130 0.5341
vn -0.6720 -0.5130 0.5341
vn -0.6344 -0.4843 0.6025
vn -0.6344 -0.4843 0.6025
vn -0.5851 -0.4467 0.6769
vn -0.5851 -0.4467 0.6769
vn -0.5230 -0.3992 0.7531
vn -0.5230 -0.3992 0.7531
vn -0.4471 -0.3413 0.8268
vn -0.4471 -0.3413 0.8268
vn -0.3570 -0.2725 0.8935
vn -0.3570 -0.2725 0.8935
vn -0.2530 -0.1931 0.9480
vn -0.2530 -0.1931 0.9480
vn -0.4941 -0.8533 0.1666
vn -0.4941 -0.8533 0.1666
vn -0.4918 -0.8494 0.1916
vn -0.4918 -0.8494 0.1916
vn -0.4862 -0.8396 0.2422
vn -0.4862 -0.8396 0.2422
vn -0.4764 -0.8228 0.3100
vn -0.4764 -0.8228 0.3100
vn -0.4612 -0.7965 0.3910
vn -0.4612 -0.7965 0.3910
vn -0.4392 -0.7585 0.4814
vn -0.4392 -0.7585 0.4814
vn -0.4091 -0.7065 0.5775
vn -0.4091 -0.7065 0.5775
vn -0.3697 -0.6384 0.6751
vn -0.3697 -0.6384 0.6751
vn -0.3201 -0.5529 0.7693
vn -0.3201 -0.5529 0.7693
vn -0.2601 -0.4492 0.8547
vn -0.2601 -0.4492 0.8547
vn -0.3540 -0.9226 0.1535
vn -0.3540 -0.9226 0.1535
vn -0.3528 -0.9197 0.1723
vn -0.3528 -0.9197 0.1723
vn -0.3502 -0.9127 0.2104
vn -0.3502 -0.9127 0.2104
vn -0.3457 -0.9011 0.2618
vn -0.3457 -0.9011 0.2618
vn -0.3389 -0.8834 0.3237
vn -0.3389 -0.8834 0.3237
vn -0.3292 -0.8581 0.3940
vn -0.3292 -0.8581 0.3940
vn -0.3161 -0.8238 0.4706
vn -0.3161 -0.8238 0.4706
vn -0.2989 -0.7790 0.5513
vn -0.2989 -0.7790 0.5513
vn -0.2771 -0.7223 0.6337
vn -0.2771 -0.7223 0.6337
vn -0.2504 -0.6527 0.7150
vn -0.2504 -0.6527 0.7150
vn -0.0942 -0.9313 0.3519
vn -0.0942 -0.9313 0.3519
vn -0.0936 -0.9254 0.3673
vn -0.0936 -0.9254 0.3673
vn -0.0923 -0.9127 0.3981
vn -0.0923 -0.9127 0.3981
vn -0.0904 -0.8937 0.4395
vn -0.0904 -0.8937 0.4395
vn -0.0878 -0.8679 0.4889
vn -0.0878 -0.8679 0.4889
vn -0.0844 -0.8346 0.5444
vn -0.0844 -0.8346 0.5444
vn -0.0802 -0.7927 0.6043
vn -0.0802 -0.7927 0.6043
vn -0.0750 -0.7416 0.6667
vn -0.0750 -0.7416 0.6667
vn -0.0688 -0.6803 0.7297
vn -0.0688 -0.6803 0.7297
vn -0.0615 -0.6083 0.7913
vn -0.0615 -0.6083 0.7913
vn 0.1025 -0.9470 0.3045
vn 0.1025 -0.9470 0.3045
vn 0.1020 -0.9420 0.3196
vn 0.1020 -0.9420 0.3196
vn 0.1008 -0.9312 0.3502
vn 0.1008 -0.9312 0.3502
vn 0.0990 -0.9150 0.3912
vn 0.0990 -0.9150 0.3912
vn 0.0966 -0.8926 0.4404
vn 0.0966 -0.8926 0.4404
vn 0.0934 -0.8633 0.4960
vn 0.0934 -0.8633 0.4960
vn 0.0894 -0.8261 0.5564
vn 0.0894 -0.8261 0.5564
vn 0.0845 -0.7802 0.6198
vn 0.0845 -0.7802 0.6198
vn 0.0784 -0.7247 0.6846
vn 0.0784 -0.7247 0.6846
vn 0.0713 -0.6589 0.7488
vn 0.0713 -0.6589 0.7488
vn 0.2345 -0.9443 0.2307
vn 0.2345 -0.9443 0.2307
vn 0.2327 -0.9373 0.2596
vn 0.2327 -0.9373 0.2596
vn 0.2285 -0.9203 0.3176
vn 0.2285 -0.9203 0.3176
vn 0.2214 -0.8917 0.3947
vn 0.2214 -0.8917 0.3947
vn 0.2107 -0.8485 0.4854
vn 0.2107 -0.8485 0.4854
vn 0.1955 -0.7874 0.5847
vn 0.1955 -0.7874 0.5847
vn 0.1751 -0.7054 0.6868
vn 0.1751 -0.7054 0.6868
vn 0.1491 -0.6004 0.7857
vn 0.1491 -0.6004 0.7857
vn 0.1171 -0.4714 0.8741
vn 0.1171 -0.4714 0.8741
vn 0.0792 -0.3190 0.9444
vn 0.0792 -0.3190 0.9444
vn 0.5297 -0.8344 0.1522
vn 0.5297 -0.8344 0.1522
vn 0.5278 -0.8314 0.1736
vn 0.5278 -0.8314 0.1736
vn 0.5232 -0.8242 0.2168
vn 0.5232 -0.8242 0.2168
vn 0.5153 -0.8117 0.2751
vn 0.5153 -0.8117 0.2751
vn 0.5030 -0.7924 0.3450
vn 0.5030 -0.7924 0.3450
vn 0.4854 -0.7646 0.4240
vn 0.4854 -0.7646 0.4240
vn 0.4612 -0.7265 0.5093
vn 0.4612 -0.7265 0.5093
vn 0.4295 -0.6766 0.5981
vn 0.4295 -0.6766 0.5981
vn 0.3894 -0.6134 0.6871
vn 0.3894 -0.6134 0.6871
vn 0.3403 -0.5360 0.7726
vn 0.3403 -0.5360 0.7726
vn 0.6298 -0.7569 0.1744
vn 0.6298 -0.7569 0.1744
vn 0.6268 -0.7533 0.1991
vn 0.6268 -0.7533 0.1991
vn 0.6195 -0.7445 0.2490
vn 0.6195 -0.7445 0.2490
vn 0.6069 -0.7293 0.3159
vn 0.6069 -0.7293 0.3159
vn 0.5874 -0.7059 0.3957
vn 0.5874 -0.7059 0.3957
vn 0.5594 -0.6723 0.4848
vn 0.5594 -0.6723 0.4848
vn 0.5213 -0.6264 0.5796
vn 0.5213 -0.6264 0.5796
vn 0.4714 -0.5665 0.6759
vn 0.4714 -0.5665 0.6759
vn 0.4090 -0.4914 0.7689
vn 0.4090 -0.4914 0.7689
vn 0.3333 -0.4005 0.8535
vn 0.3333 -0.4005 0.8535
vn 0.8190 -0.4250 0.3855
vn 0.8190 -0.4250 0.3855
vn 0.8086 -0.4196 0.4124
vn 0.8086 -0.4196 0.4124
vn 0.7854 -0.4076 0.4659
vn 0.7854 -0.4076 0.4659
vn 0.7493 -0.3888 0.5361
vn 0.7493 -0.3888 0.5361
vn 0.6984 -0.3624 0.6172
vn 0.6984 -0.3624 0.6172
vn 0.6305 -0.3272 0.7038
vn 0.6305 -0.3272 0.7038
vn 0.5440 -0.2823 0.7902
vn 0.5440 -0.2823 0.7902
vn 0.4376 -0.2271 0.8700
vn 0.4376 -0.2271 0.8700
vn 0.3114 -0.1616 0.9364
vn 0.3114 -0.1616 0.9364
vn 0.1668 -0.0866 0.9822
vn 0.1668 -0.0866 0.9822
vn 0.8424 -0.3472 0.4121
vn 0.8424 -0.3472 0.4121
vn 0.8332 -0.3435 0.4333
vn 0.8332 -0.3435 0.4333
vn 0.8133 -0.3352 0.4756
vn 0.8133 -0.3352 0.4756
vn 0.7831 -0.3228 0.5316
vn 0.7831 -0.3228 0.5316
vn 0.7417 -0.3057 0.5970
vn 0.7417 -0.3057 0.5970
vn 0.6877 -0.2835 0.6684
vn 0.6877 -0.2835 0.6684
vn 0.6198 -0.2555 0.7420
vn 0.6198 -0.2555 0.7420
vn 0.5369 -0.2213 0.8141
vn 0.5369 -0.2213 0.8141
vn 0.4386 -0.1808 0.8803
vn 0.4386 -0.1808 0.8803
vn 0.3249 -0.1339 0.9362
vn 0.3249 -0.1339 0.9362
vn 0.9718 -0.0543 0.2296
vn 0.9718 -0.0543 0.2296
vn 0.9667 -0.0540 0.2503
vn 0.9667 -0.0540 0.2503
vn 0.9550 -0.0534 0.2919
vn 0.9550 -0.0534 0.2919
vn 0.9362 -0.0523 0.3476
vn 0.9362 -0.0523 0.3476
vn 0.9087 -0.0508 0.4142
vn 0.9087 -0.0508 0.4142
vn 0.8709 -0.0487 0.4890
vn 0.8709 -0.0487 0.4890
vn 0.8209 -0.0459 0.5692
vn 0.8209 -0.0459 0.5692
vn 0.7571 -0.0423 0.6519
vn 0.7571 -0.0423 0.6519
vn 0.6782 -0.0379 0.7339
vn 0.6782 -0.0379 0.7339
vn 0.5833 -0.0326 0.8116
vn 0.5833 -0.0326 0.8116
vn 0.9415 -0.1760 0.2876
vn 0.9415 -0.1760 0.2876
vn 0.9356 -0.1749 0.3066
vn 0.9356 -0.1749 0.3066
vn 0.9227 -0.1725 0.3448
vn 0.9227 -0.1725 0.3448
vn 0.9026 -0.1687 0.3961
vn 0.9026 -0.1687 0.3961
vn 0.8742 -0.1634 0.4572
vn 0.8742 -0.1634 0.4572
vn 0.8363 -0.1563 0.5256
vn 0.8363 -0.1563 0.5256
vn 0.7873 -0.1471 0.5988
vn 0.7873 -0.1471 0.5988
vn 0.7259 -0.1357 0.6743
vn 0.7259 -0.1357 0.6743
vn 0.6511 -0.1217 0.7492
vn 0.6511 -0.1217 0.7492
vn 0.5622 -0.1051 0.8203
vn 0.5622 -0.1051 0.8203
vn 0.9896 0.0193 0.1425
vn 0.9896 0.0193 0.1425
vn 0.9849 0.0192 0.1718
vn 0.9849 0.0192 0.1718
vn 0.9728 0.0190 0.2308
vn 0.9728 0.0190 0.2308
vn 0.9506 0.0186 0.3098
vn 0.9506 0.0186 0.3098
vn 0.9148 0.0179 0.4036
vn 0.9148 0.0179 0.4036
vn 0.8614 0.0168 0.5076
vn 0.8614 0.0168 0.5076
vn 0.7872 0.0154 0.6165
vn 0.7872 0.0154 0.6165
vn 0.6893 0.0135 0.7243
vn 0.6893 0.0135 0.7243
vn 0.5661 0.0111 0.8243
vn 0.5661 0.0111 0.8243
vn 0.4173 0.0081 0.9087
vn 0.4173 0.0081 0.9087
vn 0.9025 0.3711 0.2187
vn 0.9025 0.3711 0.2187
vn 0.8974 0.3690 0.2420
vn 0.8974 0.3690 0.2420
vn 0.8854 0.3641 0.2890
vn 0.8854 0.3641 0.2890
vn 0.8657 0.3560 0.3518
vn 0.8657 0.3560 0.3518
vn 0.8365 0.3440 0.4266
vn 0.8365 0.3440 0.4266
vn 0.7955 0.3272 0.5100
vn 0.7955 0.3272 0.5100
vn 0.7408 0.3047 0.5987
vn 0.7408 0.3047 0.5987
vn 0.6705 0.2758 0.6887
vn 0.6705 0.2758 0.6887
vn 0.5834 0.2399 0.7759
vn 0.5834 0.2399 0.7759
vn 0.4788 0.1969 0.8556
vn 0.4788 0.1969 0.8556
vn 0.7691 0.4935 0.4061
vn 0.7691 0.4935 0.4061
vn 0.7631 0.4896 0.4219
vn 0.7631 0.4896 0.4219
vn 0.7501 0.4813 0.4536
vn 0.7501 0.4813 0.4536
vn 0.7309 0.4690 0.4959
vn 0.7309 0.4690 0.4959
vn 0.7051 0.4524 0.5460
vn 0.7051 0.4524 0.5460
vn 0.6720 0.4312 0.6020
vn 0.6720 0.4312 0.6020
vn 0.6310 0.4049 0.6618
vn 0.6310 0.4049 0.6618
vn 0.5812 0.3729 0.7233
vn 0.5812 0.3729 0.7233
vn 0.5222 0.3351 0.7843
vn 0.5222 0.3351 0.7843
vn 0.4535 0.2910 0.8424
vn 0.4535 0.2910 0.8424
vn 0.7934 0.5905 0.1473
vn 0.7934 0.5905 0.1473
vn 0.7907 0.5885 0.1684
vn 0.7907 0.5885 0.1684
vn 0.7841 0.5836 0.2111
vn 0.7841 0.5836 0.2111
vn 0.7727 0.5751 0.2686
vn 0.7727 0.5751 0.2686
vn 0.7551 0.5620 0.3376
vn 0.7551 0.5620 0.3376
vn 0.7296 0.5430 0.4157
vn 0.7296 0.5430 0.4157
vn 0.6946 0.5170 0.5002
vn 0.6946 0.5170 0.5002
vn 0.6487 0.4828 0.5883
vn 0.6487 0.4828 0.5883
vn 0.5904 0.4395 0.6769
vn 0.5904 0.4395 0.6769
vn 0.5190 0.3863 0.7625
vn 0.5190 0.3863 0.7625
vn 0.6323 0.7240 0.2759
vn 0.6323 0.7240 0.2759
vn 0.6273 0.7183 0.3008
vn 0.6273 0.7183 0.3008
vn 0.6160 0.7053 0.3508
vn 0.6160 0.7053 0.3508
vn 0.5978 0.6845 0.4172
vn 0.5978 0.6845 0.4172
vn 0.5713 0.6542 0.4956
vn 0.5713 0.6542 0.4956
vn 0.5349 0.6125 0.5820
vn 0.5349 0.6125 0.5820
vn 0.4872 0.5578 0.6720
vn 0.4872 0.5578 0.6720
vn 0.4268 0.4887 0.7609
vn 0.4268 0.4887 0.7609
vn 0.3531 0.4043 0.8437
vn 0.3531 0.4043 0.8437
vn 0.2660 0.3046 0.9146
vn 0.2660 0.3046 0.9146
vn 0.4109 0.8849 0.2193
vn 0.4109 0.8849 0.2193
vn 0.4080 0.8787 0.2479
vn 0.4080 0.8787 0.2479
vn 0.4011 0.8637 0.3052
vn 0.4011 0.8637 0.3052
vn 0.3893 0.8384 0.3815
vn 0.3893 0.8384 0.3815
vn 0.3714 0.7999 0.4715
vn 0.3714 0.7999 0.4715
vn 0.3460 0.7451 0.5702
vn 0.3460 0.7451 0.5702
vn 0.3118 0.6714 0.6723
vn 0.3118 0.6714 0.6723
vn 0.2678 0.5767 0.7718
vn 0.2678 0.5767 0.7718
vn 0.2136 0.4599 0.8619
vn 0.2136 0.4599 0.8619
vn 0.1492 0.3213 0.9351
vn 0.1492 0.3213 0.9351
vn 0.1624 0.9538 0.2528
vn 0.1624 0.9538 0.2528
vn 0.1611 0.9459 0.2816
vn 0.1611 0.9459 0.2816
vn 0.1579 0.9274 0.3392
vn 0.1579 0.9274 0.3392
vn 0.1527 0.8966 0.4157
vn 0.1527 0.8966 0.4157
vn 0.1449 0.8506 0.5054
vn 0.1449 0.8506 0.5054
vn 0.1339 0.7862 0.6032
vn 0.1339 0.7862 0.6032
vn 0.1193 0.7006 0.7035
vn 0.1193 0.7006 0.7035
vn 0.1008 0.5916 0.7999
vn 0.1008 0.5916 0.7999
vn 0.0781 0.4585 0.8853
vn 0.0781 0.4585 0.8853
vn 0.0514 0.3020 0.9519
vn 0.0514 0.3020 0.9519
vn -0.1078 0.9483 0.2986
vn -0.1078 0.9483 0.2986
vn -0.1070 0.9417 0.3191
vn -0.1070 0.9417 0.3191
vn -0.1054 0.9269 0.3601
vn -0.1054 0.9269 0.3601
vn -0.1028 0.9040 0.4150
vn -0.1028 0.9040 0.4150
vn -0.0991 0.8716 0.4801
vn -0.0991 0.8716 0.4801
vn -0.0941 0.8280 0.5527
vn -0.0941 0.8280 0.5527
vn -0.0877 0.7718 0.6298
vn -0.0877 0.7718 0.6298
vn -0.0797 0.7015 0.7082
vn -0.0797 0.7015 0.7082
vn -0.0700 0.6159 0.7847
vn -0.0700 0.6159 0.7847
vn -0.0585 0.5146 0.8555
vn -0.0585 0.5146 0.8555
vn -0.2666 0.9314 0.2479
vn -0.2666 0.9314 0.2479
vn -0.2650 0.9257 0.2700
vn -0.2650 0.9257 0.2700
vn -0.2613 0.9126 0.3145
vn -0.2613 0.9126 0.3145
vn -0.2552 0.8916 0.3740
vn -0.2552 0.8916 0.3740
vn -0.2465 0.8610 0.4448
vn -0.2465 0.8610 0.4448
vn -0.2345 0.8190 0.5238
vn -0.2345 0.8190 0.5238
vn -0.2186 0.7635 0.6077
vn -0.2186 0.7635 0.6077
vn -0.1984 0.6930 0.6931
vn -0.1984 0.6930 0.6931
vn -0.1736 0.6062 0.7761
vn -0.1736 0.6062 0.7761
vn -0.1439 0.5025 0.8525
vn -0.1439 0.5025 0.8525
vn -0.3863 0.8559 0.3438
vn -0.3863 0.8559 0.3438
vn -0.3827 0.8479 0.3668
vn -0.3827 0.8479 0.3668
vn -0.3747 0.8302 0.4127
vn -0.3747 0.8302 0.4127
vn -0.3623 0.8027 0.4736
vn -0.3623 0.8027 0.4736
vn -0.3449 0.7640 0.5452
vn -0.3449 0.7640 0.5452
vn -0.3216 0.7124 0.6237
vn -0.3216 0.7124 0.6237
vn -0.2917 0.6462 0.7053
vn -0.2917 0.6462 0.7053
vn -0.2546 0.5640 0.7855
vn -0.2546 0.5640 0.7855
vn -0.2100 0.4652 0.8600
vn -0.2100 0.4652 0.8600
vn -0.1578 0.3497 0.9235
vn -0.1578 0.3497 0.9235
vn -0.6137 0.7808 0.1175
vn -0.6137 0.7808 0.1175
vn -0.6122 0.7790 0.1356
vn -0.6122 0.7790 0.1356
vn -0.6087 0.7745 0.1723
vn -0.6087 0.7745 0.1723
vn -0.6025 0.7666 0.2219
vn -0.6025 0.7666 0.2219
vn -0.5929 0.7544 0.2819
vn -0.5929 0.7544 0.2819
vn -0.5788 0.7364 0.3502
vn -0.5788 0.7364 0.3502
vn -0.5593 0.7116 0.4252
vn -0.5593 0.7116 0.4252
vn -0.5335 0.6788 0.5047
vn -0.5335 0.6788 0.5047
vn -0.5004 0.6367 0.5867
vn -0.5004 0.6367 0.5867
vn -0.4594 0.5845 0.6688
vn -0.4594 0.5845 0.6688
vn -0.8499 0.4558 0.2645
vn -0.8499 0.4558 0.2645
vn -0.8440 0.4526 0.2876
vn -0.8440 0.4526 0.2876
vn -0.8307 0.4455 0.3340
vn -0.8307 0.4455 0.3340
vn -0.8092 0.4340 0.3960
vn -0.8092 0.4340 0.3960
vn -0.7782 0.4173 0.4694
vn -0.7782 0.4173 0.4694
vn -0.7355 0.3945 0.5508
vn -0.7355 0.3945 0.5508
vn -0.6795 0.3644 0.6367
vn -0.6795 0.3644 0.6367
vn -0.6086 0.3264 0.7232
vn -0.6086 0.3264 0.7232
vn -0.5217 0.2798 0.8059
vn -0.5217 0.2798 0.8059
vn -0.4184 0.2244 0.8801
vn -0.4184 0.2244 0.8801
vn -0.8348 0.4520 0.3144
vn -0.8348 0.4520 0.3144
vn -0.8277 0.4481 0.3377
vn -0.8277 0.4481 0.3377
vn -0.8118 0.4395 0.3844
vn -0.8118 0.4395 0.3844
vn -0.7869 0.4260 0.4464
vn -0.7869 0.4260 0.4464
vn -0.7514 0.4068 0.5195
vn -0.7514 0.4068 0.5195
vn -0.7035 0.3809 0.6000
vn -0.7035 0.3809 0.6000
vn -0.6416 0.3473 0.6839
vn -0.6416 0.3473 0.6839
vn -0.5641 0.3054 0.7671
vn -0.5641 0.3054 0.7671
vn -0.4704 0.2547 0.8449
vn -0.4704 0.2547 0.8449
vn -0.3602 0.1950 0.9123
vn -0.3602 0.1950 0.9123
vn -0.8589 0.3478 0.3759
vn -0.8589 0.3478 0.3759
vn -0.8496 0.3440 0.3999
vn -0.8496 0.3440 0.3999
vn -0.8288 0.3355 0.4479
vn -0.8288 0.3355 0.4479
vn -0.7967 0.3225 0.5112
vn -0.7967 0.3225 0.5112
vn -0.7517 0.3043 0.5850
vn -0.7517 0.3043 0.5850
vn -0.6921 0.2802 0.6652
vn -0.6921 0.2802 0.6652
vn -0.6161 0.2494 0.7471
vn -0.6161 0.2494 0.7471
vn -0.5225 0.2115 0.8260
vn -0.5225 0.2115 0.8260
vn -0.4108 0.1663 0.8964
vn -0.4108 0.1663 0.8964
vn -0.2814 0.1139 0.9528
vn -0.2814 0.1139 0.9528
f 1//1 2//1 4//1
f 1//2 4//2 3//2
f 3//3 4//3 6//3
f 3//4 6//4 5//4
f 5//5 6//5 8//5
f 5//6 8//6 7//6
f 7//7 8//7 10//7
f 7//8 10//8 9//8
f 9//9 10//9 12//9
f 9//10 12//10 11//10
f 11//11 12//11 14//11
f 11//12 14//12 13//12
f 13//13 14//13 16//13
f 13//14 16//14 15//14
f 15//15 16//15 18//15
f 15//16 18//16 17//16
f 17//17 18//17 20//17
f 17//18 20//18 19//18
f 19//19 20//19 22//19
f 19//20 22//20 21//20
f 23//21 24//21 26//21
f 23//22 26//22 25//22
f 25//23 26//23 28//23
f 25//24 28//24 27//24
f 27//25 28//25 30//25
f 27//26 30//26 29//26
f 29//27 30//27 32//27
f 29//28 32//28 31//28
f 31//29 32//29 34//29
f 31//30 34//30 33//30
f 33//31 34//31 36//31
f 33//32 36//32 35//32
f 35//33 36//33 38//33
f 35//34 38//34 37//34
f 37//35 38//35 40//35
f 37//36 40//36 39//36
f 39//37 40//37 42//37
f 39//38 42//38 41//38
f 41//39 42//39 44//39
f 41//40 44//40 43//40
f 45//41 46//41 48//41
f 45//42 48//42 47//42
f 47//43 48//43 50//43
f 47//44 50//44 49//44
f 49//45 50//45 52//45
f 49//46 52//46 51//46
f 51//47 52//47 54//47
f 51//48 54//48 53//48
f 53//49 54//49 56//49
f 53//50 56//50 55//50
f 55//51 56//51 58//51
f 55//52 58//52 57//52
f 57//53 58//53 60//53
f 57//54 60//54 59//54
f 59//55 60//55 62//55
f 59//56 62//56 61//56
f 61//57 62//57 64//57
f 61//58 64//58 63//58
f 63//59 64//59 66//59
f 63//60 66//60 65//60
f 67//61 68//61 70//61
f 67//62 70//62 69//62
f 69//63 70//63 72//63
f 69//64 72//64 71//64
f 71//65 72//65 74//65
f 71//66 74//66 73//66
f 73//67 74//67 76//67
f 73//68 76//68 75//68
f 75//69 76//69 78//69
f 75//70 78//70 77//70
f 77//71 78//71 80//71
f 77//72 80//72 79//72
f 79//73 80//73 82//73
f 79//74 82//74 81//74
f 81//75 82//75 84//75
f 81//76 84//76 83//76
f 83//77 84//77 86//77
f 83//78 86//78 85//78
f 85//79 86//79 88//79
f 85//80 88//80 87//80
f 89//81 90//81 92//81
f 89//82 92//82 91//82
f 91//83 92//83 94//83
f 91//84 94//84 93//84
f 93//85 94//85 96//85
f 93//86 96//86 95//86
f 95//87 96//87 98//87
f 95//88 98//88 97//88
f 97//89 98//89 100//89
f 97//90 100//90 99//90
f 99//91 100//91 102//91
f 99//92 102//92 101//92
f 101//93 102//93 104//93
f 101//94 104//94 103//94
f 103//95 104//95 106//95
f 103//96 106//96 105//96
f 105//97 106//97 108//97
f 105//98 108//98 107//98
f 107//99 108//99 110//99
f 107//100 110//100 109//100
f 111//101 112//101 114//101
f 111//102 114//102 113//102
f 113//103 114//103 116//103
f 113//104 116//104 115//104
f 115//105 116//105 118//105
f 115//106 118//106 117//106
f 117//107 118//107 120//107
f 117//108 120//108 119//108
f 119//109 120//109 122//109
f 119//110 122//110 121//110
f 121//111 122//111 124//111
f 121//112 124//112 123//112
f 123//113 124//113 126//113
f 123//114 126//114 125//114
f 125//115 126//115 128//115
f 125//116 128//116 127//116
f 127//117 128//117 130//117
f 127//118 130//118 129//118
f 129//119 130//119 132//119
f 129//120 132//120 131//120
f 133//121 134//121 136//121
f 133//122 136//122 135//122
f 135//123 136//123 138//123
f 135//124 138//124 137//124
f 137//125 138//125 140//125
f 137//126 140//126 139//126
f 139//127 140//127 142//127
f 139//128 142//128 141//128
f 141//129 142//129 144//129
f 141//130 144//130 143//130
f 143//131 144//131 146//131
f 143//132 146//132 145//132
f 145//133 146//133 148//133
f 145//134 148//134 147//134
f 147//135 148//135 150//135
f 147//136 150//136 149//136
f 149//137 150//137 152//137
f 149//138 152//138 151//138
f 151//139 152//139 154//139
f 151//140 154//140 153//140
f 155//141 156//141 158//141
f 155//142 158//142 157//142
f 157//143 158//143 160//143
f 157//144 160//144 159//144
f 159//145 160//145 162//145
f 159//146 162//146 161//146
f 161//147 162//147 164//147
f 161//148 164//148 163//148
f 163//149 164//149 166//149
f 163//150 166//150 165//150
f 165//151 166//151 168//151
f 165//152 168//152 167//152
f 167//153 168//153 170//153
f 167//154 170//154 169//154
f 169//155 170//155 172//155
f 169//156 172//156 171//156
f 171//157 172//157 174//157
f 171//158 174//158 173//158
f 173//159 174//159 176//159
f 173//160 176//160 175//160
f 177//161 178//161 180//161
f 177//162 180//162 179//162
f 179//163 180//163 182//163
f 179//164 182//164 181//164
f 181//165 182//165 184//165
f 181//166 184//166 183//166
f 183//167 184//167 186//167
f 183//168 186//168 185//168
f 185//169 186//169 188//169
f 185//170 188//170 187//170
f 187//171 188//171 190//171
f 187//172 190//172 189//172
f 189//173 190//173 192//173
f 189//174 192//174 191//174
f 191//175 192//175 194//175
f 191//176 194//176 193//176
f 193//177 194//177 196//177
f 193//178 196//178 195//178
f 195//179 196//179 198//179
f 195//180 198//180 197//180
f 199//181 200//181 202//181
f 199//182 202//182 201//182
f 201//183 202//183 204//183
f 201//184 204//184 203//184
f 203//185 204//185 206//185
f 203//186 206//186 205//186
f 205//187 206//187 208//187
f 205//188 208//188 207//188
f 207//189 208//189 210//189
f 207//190 210//190 209//190
f 209//191 210//191 212//191
f 209//192 212//192 211//192
f 211//193 212//193 214//193
f 211//194 214//194 213//194
f 213//195 214//195 216//195
f 213//196 216//196 215//196
f 215//197 216//197 218//197
f 215//198 218//198 217//198
f 217//199 218//199 220//199
f 217//200 220//200 219//200
f 221//201 222//201 224//201
f 221//202 224//202 223//202
f 223//203 224//203 226//203
f 223//204 226//204 225//204
f 225//205 226//205 228//205
f 225//206 228//206 227//206
f 227//207 228//207 230//207
f 227//208 230//208 229//208
f 229//209 230//209 232//209
f 229//210 232//210 231//210
f 231//211 232//211 234//211
f 231//212 234//212 233//212
f 233//213 234//213 236//213
f 233//214 236//214 235//214
f 235//215 236//215 238//215
f 235//216 238//216 237//216
f 237//217 238//217 240//217
f 237//218 240//218 239//218
f 239//219 240//219 242//219
f 239//220 242//220 241//220
f 243//221 244//221 246//221
f 243//222 246//222 245//222
f 245//223 246//223 248//223
f 245//224 248//224 247//224
f 247//225 248//225 250//225
f 247//226 250//226 249//226
f 249//227 250//227 252//227
f 249//228 252//228 251//228
f 251//229 252//229 254//229
f 251//230 254//230 253//230
f 253//231 254//231 256//231
f 253//232 256//232 255//232
f 255//233 256//233 258//233
f 255//234 258//234 257//234
f 257//235 258//235 260//235
f 257//236 260//236 259//236
f 259//237 260//237 262//237
f 259//238 262//238 261//238
f 261//239 262//239 264//239
f 261//240 264//240 263//240
f 265//241 266//241 268//241
f 265//242 268//242 267//242
f 267//243 268//243 270//243
f 267//244 270//244 269//244
f 269//245 270//245 272//245
f 269//246 272//246 271//246
f 271//247 272//247 274//247
f 271//248 274//248 273//248
f 273//249 274//249 276//249
f 273//250 276//250 275//250
f 275//251 276//251 278//251
f 275//252 278//252 277//252
f 277//253 278//253 280//253
f 277//254 280//254 279//254
f 279//255 280//255 282//255
f 279//256 282//256 281//256
f 281//257 282//257 284//257
f 281//258 284//258 283//258
f 283//259 284//259 286//259
f 283//260 286//260 285//260
f 287//261 288//261 290//261
f 287//262 290//262 289//262
f 289//263 290//263 292//263
f 289//264 292//264 291//264
f 291//265 292//265 294//265
f 291//266 294//266 293//266
f 293//267 294//267 296//267
f 293//268 296//268 295//268
f 295//269 296//269 298//269
f 295//270 298//270 297//270
f 297//271 298//271 300//271
f 297//272 300//272 299//272
f 299//273 300//273 302//273
f 299//274 302//274 301//274
f 301//275 302//275 304//275
f 301//276 304//276 303//276
f 303//277 304//277 306//277
f 303//278 306//278 305//278
f 305//279 306//279 308//279
f 305//280 308//280 307//280
f 309//281 310//281 312//281
f 309//282 312//282 311//282
f 311//283 312//283 314//283
f 311//284 314//284 313//284
f 313//285 314//285 316//285
f 313//286 316//286 315//286
f 315//287 316//287 318//287
f 315//288 318//288 317//288
f 317//289 318//289 320//289
f 317//290 320//290 319//290
f 319//291 320//291 322//291
f 319//292 322//292 321//292
f 321//293 322//293 324//293
f 321//294 324//294 323//294
f 323//295 324//295 326//295
f 323//296 326//296 325//296
f 325//297 326//297 328//297
f 325//298 328//298 327//298
f 327//299 328//299 330//299
f 327//300 330//300 329//300
f 331//301 332//301 334//301
f 331//302 334//302 333//302
f 333//303 334//303 336//303
f 333//304 336//304 335//304
f 335//305 336//305 338//305
f 335//306 338//306 337//306
f 337//307 338//307 340//307
f 337//308 340//308 339//308
f 339//309 340//309 342//309
f 339//310 342//310 341//310
f 341//311 342//311 344//311
f 341//312 344//312 343//312
f 343//313 344//313 346//313
f 343//314 346//314 345//314
f 345//315 346//315 348//315
f 345//316 348//316 347//316
f 347//317 348//317 350//317
f 347//318 350//318 349//318
f 349//319 350//319 352//319
f 349//320 352//320 351//320
f 353//321 354//321 356//321
f 353//322 356//322 355//322
f 355//323 356//323 358//323
f 355//324 358//324 357//324
f 357//325 358//325 360//325
f 357//326 360//326 359//326
f 359//327 360//327 362//327
f 359//328 362//328 361//328
f 361//329 362//329 364//329
f 361//330 364//330 363//330
f 363//331 364//331 366//331
f 363//332 366//332 365//332
f 365//333 366//333 368//333
f 365//334 368//334 367//334
f 367//335 368//335 370//335
f 367//336 370//336 369//336
f 369//337 370//337 372//337
f 369//338 372//338 371//338
f 371//339 372//339 374//339
f 371//340 374//340 373//340
f 375//341 376//341 378//341
f 375//342 378//342 377//342
f 377//343 378//343 380//343
f 377//344 380//344 379//344
f 379//345 380//345 382//345
f 379//346 382//346 381//346
f 381//347 382//347 384//347
f 381//348 384//348 383//348
f 383//349 384//349 386//349
f 383//350 386//350 385//350
f 385//351 386//351 388//351
f 385//352 388//352 387//352
f 387//353 388//353 390//353
f 387//354 390//354 389//354
f 389//355 390//355 392//355
f 389//356 392//356 391//356
f 391//357 392//357 394//357
f 391//358 394//358 393//358
f 393//359 394//359 396//359
f 393//360 396//360 395//360
f 397//361 398//361 400//361
f 397//362 400//362 399//362
f 399//363 400//363 402//363
f 399//364 402//364 401//364
f 401//365 402//365 404//365
f 401//366 404//366 403//366
f 403//367 404//367 406//367
f 403//368 406//368 405//368
f 405//369 406//369 408//369
f 405//370 408//370 407//370
f 407//371 408//371 410//371
f 407//372 410//372 409//372
f 409//373 410//373 412//373
f 409//374 412//374 411//374
f 411//375 412//375 414//375
f 411//376 414//376 413//376
f 413//377 414//377 416//377
f 413//378 416//378 415//378
f 415//379 416//379 418//379
f 415//380 418//380 417//380
f 419//381 420//381 422//381
f 419//382 422//382 421//382
f 421//383 422//383 424//383
f 421//384 424//384 423//384
f 423//385 424//385 426//385
f 423//386 426//386 425//386
f 425//387 426//387 428//387
f 425//388 428//388 427//388
f 427//389 428//389 430//389
f 427//390 430//390 429//390
f 429//391 430//391 432//391
f 429//392 432//392 431//392
f 431//393 432//393 434//393
f 431//394 434//394 433//394
f 433//395 434//395 436//395
f 433//396 436//396 435//396
f 435//397 436//397 438//397
f 435//398 438//398 437//398
f 437//399 438//399 440//399
f 437//400 440//400 439//400
f 441//401 442//401 444//401
f 441//402 444//402 443//402
f 443//403 444//403 446//403
f 443//404 446//404 445//404
f 445//405 446//405 448//405
f 445//406 448//406 447//406
f 447//407 448//407 450//407
f 447//408 450//408 449//408
f 449//409 450//409 452//409
f 449//410 452//410 451//410
f 451//411 452//411 454//411
f 451//412 454//412 453//412
f 453//413 454//413 456//413
f 453//414 456//414 455//414
f 455//415 456//415 458//415
f 455//416 458//416 457//416
f 457//417 458//417 460//417
f 457//418 460//418 459//418
f 459//419 460//419 462//419
f 459//420 462//420 461//420
f 463//421 464//421 466//421
f 463//422 466//422 465//422
f 465//423 466//423 468//423
f 465//424 468//424 467//424
f 467//425 468//425 470//425
f 467//426 470//426 469//426
f 469//427 470//427 472//427
f 469//428 472//428 471//428
f 471//429 472//429 474//429
f 471//430 474//430 473//430
f 473//431 474//431 476//431
f 473//432 476//432 475//432
f 475//433 476//433 478//433
f 475//434 478//434 477//434
f 477//435 478//435 480//435
f 477//436 480//436 479//436
f 479//437 480//437 482//437
f 479//438 482//438 481//438
f 481//439 482//439 484//439
f 481//440 484//440 483//440
f 485//441 486//441 488//441
f 485//442 488//442 487//442
f 487//443 488//443 490//443
f 487//444 490//444 489//444
f 489//445 490//445 492//445
f 489//446 492//446 491//446
f 491//447 492//447 494//447
f 491//448 494//448 493//448
f 493//449 494//449 496//449
f 493//450 496//450 495//450
f 495//451 496//451 498//451
f 495//452 498//452 497//452
f 497//453 498//453 500//453
f 497//454 500//454 499//454
f 499//455 500//455 502//455
f 499//456 502//456 501//456
f 501//457 502//457 504//457
f 501//458 504//458 503//458
f 503//459 504//459 506//459
f 503//460 506//460 505//460
f 507//461 508//461 510//461
f 507//462 510//462 509//462
f 509//463 510//463 512//463
f 509//464 512//464 511//464
f 511//465 512//465 514//465
f 511//466 514//466 513//466
f 513//467 514//467 516//467
f 513//468 516//468 515//468
f 515//469 516//469 518//469
f 515//470 518//470 517//470
f 517//471 518//471 520//471
f 517//472 520//472 519//472
f 519//473 520//473 522//473
f 519//474 522//474 521//474
f 521//475 522//475 524//475
f 521//476 524//476 523//476
f 523//477 524//477 526//477
f 523//478 526//478 525//478
f 525//479 526//479 528//479
f 525//480 528//480 527//480
f 529//481 530//481 532//481
f 529//482 532//482 531//482
f 531//483 532//483 534//483
f 531//484 534//484 533//484
f 533//485 534//485 536//485
f 533//486 536//486 535//486
f 535//487 536//487 538//487
f 535//488 538//488 537//488
f 537//489 538//489 540//489
f 537//490 540//490 539//490
f 539//491 540//491 542//491
f 539//492 542//492 541//492
f 541//493 542//493 544//493
f 541//494 544//494 543//494
f 543//495 544//495 546//495
f 543//496 546//496 545//496
f 545//497 546//497 548//497
f 545//498 548//498 547//498
f 547//499 548//499 550//499
f 547//500 550//500 549//500
f 551//501 552//501 554//501
f 551//502 554//502 553//502
f 553//503 554//503 556//503
f 553//504 556//504 555//504
f 555//505 556//505 558//505
f 555//506 558//506 557//506
f 557//507 558//507 560//507
f 557//508 560//508 559//508
f 559//509 560//509 562//509
f 559//510 562//510 561//510
f 561//511 562//511 564//511
f 561//512 564//512 563//512
f 563//513 564//513 566//513
f 563//514 566//514 565//514
f 565//515 566//515 568//515
f 565//516 568//516 567//516
f 567//517 568//517 570//517
f 567//518 570//518 569//518
f 569//519 570//519 572//519
f 569//520 572//520 571//520
f 573//521 574//521 576//521
f 573//522 576//522 575//522
f 575//523 576//523 578//523
f 575//524 578//524 577//524
f 577//525 578//525 580//525
f 577//526 580//526 579//526
f 579//527 580//527 582//527
f 579//528 582//528 581//528
f 581//529 582//529 584//529
f 581//530 584//530 583//530
f 583//531 584//531 586//531
f 583//532 586//532 585//532
f 585//533 586//533 588//533
f 585//534 588//534 587//534
f 587//535 588//535 590//535
f 587//536 590//536 589//536
f 589//537 590//537 592//537
f 589//538 592//538 591//538
f 591//539 592//539 594//539
f 591//540 594//540 593//540
f 595//541 596//541 598//541
f 595//542 598//542 597//542
f 597//543 598//543 600//543
f 597//544 600//544 599//544
f 599//545 600//545 602//545
f 599//546 602//546 601//546
f 601//547 602//547 604//547
f 601//548 604//548 603//548
f 603//549 604//549 606//549
f 603//550 606//550 605//550
f 605//551 606//551 608//551
f 605//552 608//552 607//552
f 607//553 608//553 610//553
f 607//554 610//554 609//554
f 609//555 610//555 612//555
f 609//556 612//556 611//556
f 611//557 612//557 614//557
f 611//558 614//558 613//558
f 613//559 614//559 616//559
f 613//560 616//560 615//560
f 617//561 618//561 620//561
f 617//562 620//562 619//562
f 619//563 620//563 622//563
f 619//564 622//564 621//564
f 621//565 622//565 624//565
f 621//566 624//566 623//566
f 623//567 624//567 626//567
f 623//568 626//568 625//568
f 625//569 626//569 628//569
f 625//570 628//570 627//570
f 627//571 628//571 630//571
f 627//572 630//572 629//572
f 629//573 630//573 632//573
f 629//574 632//574 631//574
f 631//575 632//575 634//575
f 631//576 634//576 633//576
f 633//577 634//577 636//577
f 633//578 636//578 635//578
f 635//579 636//579 638//579
f 635//580 638//580 637//580
f 639//581 640//581 642//581
f 639//582 642//582 641//582
f 641//583 642//583 644//583
f 641//584 644//584 643//584
f 643//585 644//585 646//585
f 643//586 646//586 645//586
f 645//587 646//587 648//587
f 645//588 648//588 647//588
f 647//589 648//589 650//589
f 647//590 650//590 649//590
f 649//591 650//591 652//591
f 649//592 652//592 651//592
f 651//593 652//593 654//593
f 651//594 654//594 653//594
f 653//595 654//595 656//595
f 653//596 656//596 655//596
f 655//597 656//597 658//597
f 655//598 658//598 657//598
f 657//599 658//599 660//599
f 657//600 660//600 659//600
f 1//601 4//601 2//601
f 1//602 3//602 4//602
f 3//603 6//603 4//603
f 3//604 5//604 6//604
f 5//605 8//605 6//605
f 5//606 7//606 8//606
f 7//607 10//607 8//607
f 7//608 9//608 10//608
f 9//609 12//609 10//609
f 9//610 11//610 12//610
f 11//611 14//611 12//611
f 11//612 13//612 14//612
f 13//613 16//613 14//613
f 13//614 15//614 16//614
f 15//615 18//615 16//615
f 15//616 17//616 18//616
f 17//617 20//617 18//617
f 17//618 19//618 20//618
f 19//619 22//619 20//619
f 19//620 21//620 22//620
f 23//621 26//621 24//621
f 23//622 25//622 26//622
f 25//623 28//623 26//623
f 25//624 27//624 28//624
f 27//625 30//625 28//625
f 27//626 29//626 30//626
f 29//627 32//627 30//627
f 29//628 31//628 32//628
f 31//629 34//629 32//629
f 31//630 33//630 34//630
f 33//631 36//631 34//631
f 33//632 35//632 36//632
f 35//633 38//633 36//633
f 35//634 37//634 38//634
f 37//635 40//635 38//635
f 37//636 39//636 40//636
f 39//637 42//637 40//637
f 39//638 41//638 42//638
f 41//639 44//639 42//639
f 41//640 43//640 44//640
f 45//641 48//641 46//641
f 45//642 47//642 48//642
f 47//643 50//643 48//643
f 47//644 49//644 50//644
f 49//645 52//645 50//645
f 49//646 51//646 52//646
f 51//647 54//647 52//647
f 51//648 53//648 54//648
f 53//649 56//649 54//649
f 53//650 55//650 56//650
f 55//651 58//651 56//651
f 55//652 57//652 58//652
f 57//653 60//653 58//653
f 57//654 59//654 60//654
f 59//655 62//655 60//655
f 59//656 61//656 62//656
f 61//657 64//657 62//657
f 61//658 63//658 64//658
f 63//659 66//659 64//659
f 63//660 65//660 66//660
f 67//661 70//661 68//661
f 67//662 69//662 70//662
f 69//663 72//663 70//663
f 69//664 71//664 72//664
f 71//665 74//665 72//665
f 71//666 73//666 74//666
f 73//667 76//667 74//667
f 73//668 75//668 76//668
f 75//669 78//669 76//669
f 75//670 77//670 78//670
f 77//671 80//671 78//671
f 77//672 79//672 80//672
f 79//673 82//673 80//673
f 79//674 81//674 82//674
f 81//675 84//675 82//675
f 81//676 83//676 84//676
f 83//677 86//677 84//677
f 83//678 85//678 86//678
f 85//679 88//679 86//679
f 85//680 87//680 88//680
f 89//681 92//681 90//681
f 89//682 91//682 92//682
f 91//683 94//683 92//683
f 91//684 93//684 94//684
f 93//685 96//685 94//685
f 93//686 95//686 96//686
f 95//687 98//687 96//687
f 95//688 97//688 98//688
f 97//689 100//689 98//689
f 97//690 99//690 100//690
f 99//691 102//691 100//691
f 99//692 101//692 102//692
f 101//693 104//693 102//693
f 101//694 103//694 104//694
f 103//695 106//695 104//695
f 103//696 105//696 106//696
f 105//697 108//697 106//697
f 105//698 107//698 108//698
f 107//699 110//699 108//699
f 107//700 109//700 110//700
f 111//701 114//701 112//701
f 111//702 113//702 114//702
f 113//703 116//703 114//703
f 113//704 115//704 116//704
f 115//705 118//705 116//705
f 115//706 117//706 118//706
f 117//707 120//707 118//707
f 117//708 119//708 120//708
f 119//709 122//709 120//709
f 119//710 121//710 122//710
f 121//711 124//711 122//711
f 121//712 123//712 124//712
f 123//713 126//713 124//713
f 123//714 125//714 126//714
f 125//715 128//715 126//715
f 125//716 127//716 128//716
f 127//717 130//717 128//717
f 127//718 129//718 130//718
f 129//719 132//719 130//719
f 129//720 131//720 132//720
f 133//721 136//721 134//721
f 133//722 135//722 136//722
f 135//723 138//723 136//723
f 135//724 137//724 138//724
f 137//725 140//725 138//725
f 137//726 139//726 140//726
f 139//727 142//727 140//727
f 139//728 141//728 142//728
f 141//729 144//729 142//729
f 141//730 143//730 144//730
f 143//731 146//731 144//731
f 143//732 145//732 146//732
f 145//733 148//733 146//733
f 145//734 147//734 148//734
f 147//735 150//735 148//735
f 147//736 149//736 150//736
f 149//737 152//737 150//737
f 149//738 151//738 152//738
f 151//739 154//739 152//739
f 151//740 153//740 154//740
f 155//741 158//741 156//741
f 155//742 157//742 158//742
f 157//743 160//743 158//743
f 157//744 159//744 160//744
f 159//745 162//745 160//745
f 159//746 161//746 162//746
f 161//747 164//747 162//747
f 161//748 163//748 164//748
f 163//749 166//749 164//749
f 163//750 165//750 166//750
f 165//751 168//751 166//751
f 165//752 167//752 168//752
f 167//753 170//753 168//753
f 167//754 169//754 170//754
f 169//755 172//755 170//755
f 169//756 171//756 172//756
f 171//757 174//757 172//757
f 171//758 173//758 174//758
f 173//759 176//759 174//759
f 173//760 175//760 176//760
f 177//761 180//761 178//761
f 177//762 179//762 180//762
f 179//763 182//763 180//763
f 179//764 181//764 182//764
f 181//765 184//765 182//765
f 181//766 183//766 184//766
f 183//767 186//767 184//767
f 183//768 185//768 186//768
f 185//769 188//769 186//769
f 185//770 187//770 188//770
f 187//771 190//771 188//771
f 187//772 189//772 190//772
f 189//773 192//773 190//773
f 189//774 191//774 192//774
f 191//775 194//775 192//775
f 191//776 193//776 194//776
f 193//777 196//777 194//777
f 193//778 195//778 196//778
f 195//779 198//779 196//779
f 195//780 197//780 198//780
f 199//781 202//781 200//781
f 199//782 201//782 202//782
f 201//783 204//783 202//783
f 201//784 203//784 204//784
f 203//785 206//785 204//785
f 203//786 205//786 206//786
f 205//787 208//787 206//787
f 205//788 207//788 208//788
f 207//789 210//789 208//789
f 207//790 209//790 210//790
f 209//791 212//791 210//791
f 209//792 211//792 212//792
f 211//793 214//793 212//793
f 211//794 213//794 214//794
f 213//795 216//795 214//795
f 213//796 215//796 216//796
f 215//797 218//797 216//797
f 215//798 217//798 218//798
f 217//799 220//799 218//799
f 217//800 219//800 220//800
f 221//801 224//801 222//801
f 221//802 223//802 224//802
f 223//803 226//803 224//803
f 223//804 225//804 226//804
f 225//805 228//805 226//805
f 225//806 227//806 228//806
f 227//807 230//807 228//807
f 227//808 229//808 230//808
f 229//809 232//809 230//809
f 229//810 231//810 232//810
f 231//811 234//811 232//811
f 231//812 233//812 234//812
f 233//813 236//813 234//813
f 233//814 235//814 236//814
f 235//815 238//815 236//815
f 235//816 237//816 238//816
f 237//817 240//817 238//817
f 237//818 239//818 240//818
f 239//819 242//819 240//819
f 239//820 241//820 242//820
f 243//821 246//821 244//821
f 243//822 245//822 246//822
f 245//823 248//823 246//823
f 245//824 247//824 248//824
f 247//825 250//825 248//825
f 247//826 249//826 250//826
f 249//827 252//827 250//827
f 249//828 251//828 252//828
f 251//829 254//829 252//829
f 251//830 253//830 254//830
f 253//831 256//831 254//831
f 253//832 255//832 256//832
f 255//833 258//833 256//833
f 255//834 257//834 258//834
f 257//835 260//835 258//835
f 257//836 259//836 260//836
f 259//837 262//837 260//837
f 259//838 261//838 262//838
f 261//839 264//839 262//839
f 261//840 263//840 264//840
f 265//841 268//841 266//841
f 265//842 267//842 268//842
f 267//843 270//843 268//843
f 267//844 269//844 270//844
f 269//845 272//845 270//845
f 269//846 271//846 272//846
f 271//847 274//847 272//847
f 271//848 273//848 274//848
f 273//849 276//849 274//849
f 273//850 275//850 276//850
f 275//851 278//851 276//851
f 275//852 277//852 278//852
f 277//853 280//853 278//853
f 277//854 279//854 280//854
f 279//855 282//855 280//855
f 279//856 281//856 282//856
f 281//857 284//857 282//857
f 281//858 283//858 284//858
f 283//859 286//859 284//859
f 283//860 285//860 286//860
f 287//861 290//861 288//861
f 287//862 289//862 290//862
f 289//863 292//863 290//863
f 289//864 291//864 292//864
f 291//865 294//865 292//865
f 291//866 293//866 294//866
f 293//867 296//867 294//867
f 293//868 295//868 296//868
f 295//869 298//869 296//869
f 295//870 297//870 298//870
f 297//871 300//871 298//871
f 297//872 299//872 300//872
f 299//873 302//873 300//873
f 299//874 301//874 302//874
f 301//875 304//875 302//875
f 301//876 303//876 304//876
f 303//877 306//877 304//877
f 303//878 305//878 306//878
f 305//879 308//879 306//879
f 305//880 307//880 308//880
f 309//881 312//881 310//881
f 309//882 311//882 312//882
f 311//883 314//883 312//883
f 311//884 313//884 314//884
f 313//885 316//885 314//885
f 313//886 315//886 316//886
f 315//887 318//887 316//887
f 315//888 317//888 318//888
f 317//889 320//889 318//889
f 317//890 319//890 320//890
f 319//891 322//891 320//891
f 319//892 321//892 322//892
f 321//893 324//893 322//893
f 321//894 323//894 324//894
f 323//895 326//895 324//895
f 323//896 325//896 326//896
f 325//897 328//897 326//897
f 325//898 327//898 328//898
f 327//899 330//899 328//899
f 327//900 329//900 330//900
f 331//901 334//901 332//901
f 331//902 333//902 334//902
f 333//903 336//903 334//903
f 333//904 335//904 336//904
f 335//905 338//905 336//905
f 335//906 337//906 338//906
f 337//907 340//907 338//907
f 337//908 339//908 340//908
f 339//909 342//909 340//909
f 339//910 341//910 342//910
f 341//911 344//911 342//911
f 341//912 343//912 344//912
f 343//913 346//913 344//913
f 343//914 345//914 346//914
f 345//915 348//915 346//915
f 345//916 347//916 348//916
f 347//917 350//917 348//917
f 347//918 349//918 350//918
f 349//919 352//919 350//919
f 349//920 351//920 352//920
f 353//921 356//921 354//921
f 353//922 355//922 356//922
f 355//923 358//923 356//923
f 355//924 357//924 358//924
f 357//925 360//925 358//925
f 357//926 359//926 360//926
f 359//927 362//927 360//927
f 359//928 361//928 362//928
f 361//929 364//929 362//929
f 361//930 363//930 364//930
f 363//931 366//931 364//931
f 363//932 365//932 366//932
f 365//933 368//933 366//933
f 365//934 367//934 368//934
f 367//935 370//935 368//935
f 367//936 369//936 370//936
f 369//937 372//937 370//937
f 369//938 371//938 372//938
f 371//939 374//939 372//939
f 371//940 373//940 374//940
f 375//941 378//941 376//941
f 375//942 377//942 378//942
f 377//943 380//943 378//943
f 377//944 379//944 380//944
f 379//945 382//945 380//945
f 379//946 381//946 382//946
f 381//947 384//947 382//947
f 381//948 383//948 384//948
f 383//949 386//949 384//949
f 383//950 385//950 386//950
f 385//951 388//951 386//951
f 385//952 387//952 388//952
f 387//953 390//953 388//953
f 387//954 389//954 390//954
f 389//955 392//955 390//955
f 389//956 391//956 392//956
f 391//957 394//957 392//957
f 391//958 393//958 394//958
f 393//959 396//959 394//959
f 393//960 395//960 396//960
f 397//961 400//961 398//961
f 397//962 399//962 400//962
f 399//963 402//963 400//963
f 399//964 401//964 402//964
f 401//965 404//965 402//965
f 401//966 403//966 404//966
f 403//967 406//967 404//967
f 403//968 405//968 406//968
f 405//969 408//969 406//969
f 405//970 407//970 408//970
f 407//971 410//971 408//971
f 407//972 409//972 410//972
f 409//973 412//973 410//973
f 409//974 411//974 412//974
f 411//975 414//975 412//975
f 411//976 413//976 414//976
f 413//977 416//977 414//977
f 413//978 415//978 416//978
f 415//979 418//979 416//979
f 415//980 417//980 418//980
f 419//981 422//981 420//981
f 419//982 421//982 422//982
f 421//983 424//983 422//983
f 421//984 423//984 424//984
f 423//985 426//985 424//985
f 423//986 425//986 426//986
f 425//987 428//987 426//987
f 425//988 427//988 428//988
f 427//989 430//989 428//989
f 427//990 429//990 430//990
f 429//991 432//991 430//991
f 429//992 431//992 432//992
f 431//993 434//993 432//993
f 431//994 433//994 434//994
f 433//995 436//995 434//995
f 433//996 435//996 436//996
f 435//997 438//997 436//997
f 435//998 437//998 438//998
f 437//999 440//999 438//999
f 437//1000 439//1000 440//1000
f 441//1001 444//1001 442//1001
f 441//1002 443//1002 444//1002
f 443//1003 446//1003 444//1003
f 443//1004 445//1004 446//1004
f 445//1005 448//1005 446//1005
f 445//1006 447//1006 448//1006
f 447//1007 450//1007 448//1007
f 447//1008 449//1008 450//1008
f 449//1009 452//1009 450//1009
f 449//1010 451//1010 452//1010
f 451//1011 454//1011 452//1011
f 451//1012 453//1012 454//1012
f 453//1013 456//1013 454//1013
f 453//1014 455//1014 456//1014
f 455//1015 458//1015 456//1015
f 455//1016 457//1016 458//1016
f 457//1017 460//1017 458//1017
f 457//1018 459//1018 460//1018
f 459//1019 462//1019 460//1019
f 459//1020 461//1020 462//1020
f 463//1021 466//1021 464//1021
f 463//1022 465//1022 466//1022
f 465//1023 468//1023 466//1023
f 465//1024 467//1024 468//1024
f 467//1025 470//1025 468//1025
f 467//1026 469//1026 470//1026
f 469//1027 472//1027 470//1027
f 469//1028 471//1028 472//1028
f 471//1029 474//1029 472//1029
f 471//1030 473//1030 474//1030
f 473//1031 476//1031 474//1031
f 473//1032 475//1032 476//1032
f 475//1033 478//1033 476//1033
f 475//1034 477//1034 478//1034
f 477//1035 480//1035 478//1035
f 477//1036 479//1036 480//1036
f 479//1037 482//1037 480//1037
f 479//1038 481//1038 482//1038
f 481//1039 484//1039 482//1039
f 481//1040 483//1040 484//1040
f 485//1041 488//1041 486//1041
f 485//1042 487//1042 488//1042
f 487//1043 490//1043 488//1043
f 487//1044 489//1044 490//1044
f 489//1045 492//1045 490//1045
f 489//1046 491//1046 492//1046
f 491//1047 494//1047 492//1047
f 491//1048 493//1048 494//1048
f 493//1049 496//1049 494//1049
f 493//1050 495//1050 496//1050
f 495//1051 498//1051 496//1051
f 495//1052 497//1052 498//1052
f 497//1053 500//1053 498//1053
f 497//1054 499//1054 500//1054
f 499//1055 502//1055 500//1055
f 499//1056 501//1056 502//1056
f 501//1057 504//1057 502//1057
f 501//1058 503//1058 504//1058
f 503//1059 506//1059 504//1059
f 503//1060 505//1060 506//1060
f 507//1061 510//1061 508//1061
f 507//1062 509//1062 510//1062
f 509//1063 512//1063 510//1063
f 509//1064 511//1064 512//1064
f 511//1065 514//1065 512//1065
f 511//1066 513//1066 514//1066
f 513//1067 516//1067 514//1067
f 513//1068 515//1068 516//1068
f 515//1069 518//1069 516//1069
f 515//1070 517//1070 518//1070
f 517//1071 520//1071 518//1071
f 517//1072 519//1072 520//1072
f 519//1073 522//1073 520//1073
f 519//1074 521//1074 522//1074
f 521//1075 524//1075 522//1075
f 521//1076 523//1076 524//1076
f 523//1077 526//1077 524//1077
f 523//1078 525//1078 526//1078
f 525//1079 528//1079 526//1079
f 525//1080 527//1080 528//1080
f 529//1081 532//1081 530//1081
f 529//1082 531//1082 532//1082
f 531//1083 534//1083 532//1083
f 531//1084 533//1084 534//1084
f 533//1085 536//1085 534//1085
f 533//1086 535//1086 536//1086
f 535//1087 538//1087 536//1087
f 535//1088 537//1088 538//1088
f 537//1089 540//1089 538//1089
f 537//1090 539//1090 540//1090
f 539//1091 542//1091 540//1091
f 539//1092 541//1092 542//1092
f 541//1093 544//1093 542//1093
f 541//1094 543//1094 544//1094
f 543//1095 546//1095 544//1095
f 543//1096 545//1096 546//1096
f 545//1097 548//1097 546//1097
f 545//1098 547//1098 548//1098
f 547//1099 550//1099 548//1099
f 547//1100 549//1100 550//1100
f 551//1101 554//1101 552//1101
f 551//1102 553//1102 554//1102
f 553//1103 556//1103 554//1103
f 553//1104 555//1104 556//1104
f 555//1105 558//1105 556//1105
f 555//1106 557//1106 558//1106
f 557//1107 560//1107 558//1107
f 557//1108 559//1108 560//1108
f 559//1109 562//1109 560//1109
f 559//1110 561//1110 562//1110
f 561//1111 564//1111 562//1111
f 561//1112 563//1112 564//1112
f 563//1113 566//1113 564//1113
f 563//1114 565//1114 566//1114
f 565//1115 568//1115 566//1115
f 565//1116 567//1116 568//1116
f 567//1117 570//1117 568//1117
f 567//1118 569//1118 570//1118
f 569//1119 572//1119 570//1119
f 569//1120 571//1120 572//1120
f 573//1121 576//1121 574//1121
f 573//1122 575//1122 576//1122
f 575//1123 578//1123 576//1123
f 575//1124 577//1124 578//1124
f 577//1125 580//1125 578//1125
f 577//1126 579//1126 580//1126
f 579//1127 582//1127 580//1127
f 579//1128 581//1128 582//1128
f 581//1129 584//1129 582//1129
f 581//1130 583//1130 584//1130
f 583//1131 586//1131 584//1131
f 583//1132 585//1132 586//1132
f 585//1133 588//1133 586//1133
f 585//1134 587//1134 588//1134
f 587//1135 590//1135 588//1135
f 587//1136 589//1136 590//1136
f 589//1137 592//1137 590//1137
f 589//1138 591//1138 592//1138
f 591//1139 594//1139 592//1139
f 591//1140 593//1140 594//1140
f 595//1141 598//1141 596//1141
f 595//1142 597//1142 598//1142
f 597//1143 600//1143 598//1143
f 597//1144 599//1144 600//1144
f 599//1145 602//1145 600//1145
f 599//1146 601//1146 602//1146
f 601//1147 604//1147 602//1147
f 601//1148 603//1148 604//1148
f 603//1149 606//1149 604//1149
f 603//1150 605//1150 606//1150
f 605//1151 608//1151 606//1151
f 605//1152 607//1152 608//1152
f 607//1153 610//1153 608//1153
f 607//1154 609//1154 610//1154
f 609//1155 612//1155 610//1155
f 609//1156 611//1156 612//1156
f 611//1157 614//1157 612//1157
f 611//1158 613//1158 614//1158
f 613//1159 616//1159 614//1159
f 613//1160 615//1160 616//1160
f 617//1161 620//1161 618//1161
f 617//1162 619//1162 620//1162
f 619//1163 622//1163 620//1163
f 619//1164 621//1164 622//1164
f 621//1165 624//1165 622//1165
f 621//1166 623//1166 624//1166
f 623//1167 626//1167 624//1167
f 623//1168 625//1168 626//1168
f 625//1169 628//1169 626//1169
f 625//1170 627//1170 628//1170
f 627//1171 630//1171 628//1171
f 627//1172 629//1172 630//1172
f 629//1173 632//1173 630//1173
f 629//1174 631//1174 632//1174
f 631//1175 634//1175 632//1175
f 631//1176 633//1176 634//1176
f 633//1177 636//1177 634//1177
f 633//1178 635//1178 636//1178
f 635//1179 638//1179 636//1179
f 635//1180 637//1180 638//1180
f 639//1181 642//1181 640//1181
f 639//1182 641//1182 642//1182
f 641//1183 644//1183 642//1183
f 641//1184 643//1184 644//1184
f 643//1185 646//1185 644//1185
f 643//1186 645//1186 646//1186
f 645//1187 648//1187 646//1187
f 645//1188 647//1188 648//1188
f 647//1189 650//1189 648//1189
f 647//1190 649//1190 650//1190
f 649//1191 652//1191 650//1191
f 649//1192 651//1192 652//1192
f 651//1193 654//1193 652//1193
f 651//1194 653//1194 654//1194
f 653//1195 656//1195 654//1195
f 653//1196 655//1196 656//1196
f 655//1197 658//1197 656//1197
f 655//1198 657//1198 658//1198
f 657//1199 660//1199 658//1199
f 657//1200 659//1200 660//1200
