# generated by scripts/generate_local_models.py
v 0.13000 0.00000 0.00000
v 0.12750 0.02536 0.00000
v 0.12010 0.04975 0.00000
v 0.10809 0.07222 0.00000
v 0.09192 0.09192 0.00000
v 0.07222 0.10809 0.00000
v 0.04975 0.12010 0.00000
v 0.02536 0.12750 0.00000
v 0.00000 0.13000 0.00000
v -0.02536 0.12750 0.00000
v -0.04975 0.12010 0.00000
v -0.07222 0.10809 0.00000
v -0.09192 0.09192 0.00000
v -0.10809 0.07222 0.00000
v -0.12010 0.04975 0.00000
v -0.12750 0.02536 0.00000
v -0.13000 0.00000 0.00000
v -0.12750 -0.02536 0.00000
v -0.12010 -0.04975 0.00000
v -0.10809 -0.07222 0.00000
v -0.09192 -0.09192 0.00000
v -0.07222 -0.10809 0.00000
v -0.04975 -0.12010 0.00000
v -0.02536 -0.12750 0.00000
v -0.00000 -0.13000 0.00000
v 0.02536 -0.12750 0.00000
v 0.04975 -0.12010 0.00000
v 0.07222 -0.10809 0.00000
v 0.09192 -0.09192 0.00000
v 0.10809 -0.07222 0.00000
v 0.12010 -0.04975 0.00000
v 0.12750 -0.02536 0.00000
v 0.17000 0.00000 0.30000
v 0.16673 0.03317 0.30000
v 0.15706 0.06506 0.30000
v 0.14135 0.09445 0.30000
v 0.12021 0.12021 0.30000
v 0.09445 0.14135 0.30000
v 0.06506 0.15706 0.30000
v 0.03317 0.16673 0.30000
v 0.00000 0.17000 0.30000
v -0.03317 0.16673 0.30000
v -0.06506 0.15706 0.30000
v -0.09445 0.14135 0.30000
v -0.12021 0.12021 0.30000
v -0.14135 0.09445 0.30000
v -0.15706 0.06506 0.30000
v -0.16673 0.03317 0.30000
v -0.17000 0.00000 0.30000
v -0.16673 -0.03317 0.30000
v -0.15706 -0.06506 0.30000
v -0.14135 -0.09445 0.30000
v -0.12021 -0.12021 0.30000
v -0.09445 -0.14135 0.30000
v -0.06506 -0.15706 0.30000
v -0.03317 -0.16673 0.30000
v -0.00000 -0.17000 0.30000
v 0.03317 -0.16673 0.30000
v 0.06506 -0.15706 0.30000
v 0.09445 -0.14135 0.30000
v 0.12021 -0.12021 0.30000
v 0.14135 -0.09445 0.30000
v 0.15706 -0.06506 0.30000
v 0.16673 -0.03317 0.30000
v 0.19000 0.00000 0.30000
v 0.18635 0.03707 0.30000
v 0.17554 0.07271 0.30000
v 0.15798 0.10556 0.30000
v 0.13435 0.13435 0.30000
v 0.10556 0.15798 0.30000
v 0.07271 0.17554 0.30000
v 0.03707 0.18635 0.30000
v 0.00000 0.19000 0.30000
v -0.03707 0.18635 0.30000
v -0.07271 0.17554 0.30000
v -0.10556 0.15798 0.30000
v -0.13435 0.13435 0.30000
v -0.15798 0.10556 0.30000
v -0.17554 0.07271 0.30000
v -0.18635 0.03707 0.30000
v -0.19000 0.00000 0.30000
v -0.18635 -0.03707 0.30000
v -0.17554 -0.07271 0.30000
v -0.15798 -0.10556 0.30000
v -0.13435 -0.13435 0.30000
v -0.10556 -0.15798 0.30000
v -0.07271 -0.17554 0.30000
v -0.03707 -0.18635 0.30000
v -0.00000 -0.19000 0.30000
v 0.03707 -0.18635 0.30000
v 0.07271 -0.17554 0.30000
v 0.10556 -0.15798 0.30000
v 0.13435 -0.13435 0.30000
v 0.15798 -0.10556 0.30000
v 0.17554 -0.07271 0.30000
v 0.18635 -0.03707 0.30000
v 0.19000 0.00000 0.32000
v 0.18635 0.03707 0.32000
v 0.17554 0.07271 0.32000
v 0.15798 0.10556 0.32000
v 0.13435 0.13435 0.32000
v 0.10556 0.15798 0.32000
v 0.07271 0.17554 0.32000
v 0.03707 0.18635 0.32000
v 0.00000 0.19000 0.32000
v -0.03707 0.18635 0.32000
v -0.07271 0.17554 0.32000
v -0.10556 0.15798 0.32000
v -0.13435 0.13435 0.32000
v -0.15798 0.10556 0.32000
v -0.17554 0.07271 0.32000
v -0.18635 0.03707 0.32000
v -0.19000 0.00000 0.32000
v -0.18635 -0.03707 0.32000
v -0.17554 -0.07271 0.32000
v -0.15798 -0.10556 0.32000
v -0.13435 -0.13435 0.32000
v -0.10556 -0.15798 0.32000
v -0.07271 -0.17554 0.32000
v -0.03707 -0.18635 0.32000
v -0.00000 -0.19000 0.32000
v 0.03707 -0.18635 0.32000
v 0.07271 -0.17554 0.32000
v 0.10556 -0.15798 0.32000
v 0.13435 -0.13435 0.32000
v 0.15798 -0.10556 0.32000
v 0.17554 -0.07271 0.32000
v 0.18635 -0.03707 0.32000
v 0.17000 0.00000 0.32000
v 0.16673 0.03317 0.32000
v 0.15706 0.06506 0.32000
v 0.14135 0.09445 0.32000
v 0.12021 0.12021 0.32000
v 0.09445 0.14135 0.32000
v 0.06506 0.15706 0.32000
v 0.03317 0.16673 0.32000
v 0.00000 0.17000 0.32000
v -0.03317 0.16673 0.32000
v -0.06506 0.15706 0.32000
v -0.09445 0.14135 0.32000
v -0.12021 0.12021 0.32000
v -0.14135 0.09445 0.32000
v -0.15706 0.06506 0.32000
v -0.16673 0.03317 0.32000
v -0.17000 0.00000 0.32000
v -0.16673 -0.03317 0.32000
v -0.15706 -0.06506 0.32000
v -0.14135 -0.09445 0.32000
v -0.12021 -0.12021 0.32000
v -0.09445 -0.14135 0.32000
v -0.06506 -0.15706 0.32000
v -0.03317 -0.16673 0.32000
v -0.00000 -0.17000 0.32000
v 0.03317 -0.16673 0.32000
v 0.06506 -0.15706 0.32000
v 0.09445 -0.14135 0.32000
v 0.12021 -0.12021 0.32000
v 0.14135 -0.09445 0.32000
v 0.15706 -0.06506 0.32000
v 0.16673 -0.03317 0.32000
v 0.00000 0.00000 0.00000
v 0.16500 0.00000 0.28000
v 0.16183 0.03219 0.28000
v 0.15244 0.06314 0.28000
v 0.13719 0.09167 0.28000
v 0.11667 0.11667 0.28000
v 0.09167 0.13719 0.28000
v 0.06314 0.15244 0.28000
v 0.03219 0.16183 0.28000
v 0.00000 0.16500 0.28000
v -0.03219 0.16183 0.28000
v -0.06314 0.15244 0.28000
v -0.09167 0.13719 0.28000
v -0.11667 0.11667 0.28000
v -0.13719 0.09167 0.28000
v -0.15244 0.06314 0.28000
v -0.16183 0.03219 0.28000
v -0.16500 0.00000 0.28000
v -0.16183 -0.03219 0.28000
v -0.15244 -0.06314 0.28000
v -0.13719 -0.09167 0.28000
v -0.11667 -0.11667 0.28000
v -0.09167 -0.13719 0.28000
v -0.06314 -0.15244 0.28000
v -0.03219 -0.16183 0.28000
v -0.00000 -0.16500 0.28000
v 0.03219 -0.16183 0.28000
v 0.06314 -0.15244 0.28000
v 0.09167 -0.13719 0.28000
v 0.11667 -0.11667 0.28000
v 0.13719 -0.09167 0.28000
v 0.15244 -0.06314 0.28000
v 0.16183 -0.03219 0.28000
v 0.00000 0.00000 0.28000
vn 0.9865 0.0972 -0.1315
vn 0.9865 0.0972 -0.1315
vn 0.9486 0.2878 -0.1315
vn 0.9486 0.2878 -0.1315
vn 0.8743 0.4673 -0.1315
vn 0.8743 0.4673 -0.1315
vn 0.7663 0.6289 -0.1315
vn 0.7663 0.6289 -0.1315
vn 0.6289 0.7663 -0.1315
vn 0.6289 0.7663 -0.1315
vn 0.4673 0.8743 -0.1315
vn 0.4673 0.8743 -0.1315
vn 0.2878 0.9486 -0.1315
vn 0.2878 0.9486 -0.1315
vn 0.0972 0.9865 -0.1315
vn 0.0972 0.9865 -0.1315
vn -0.0972 0.9865 -0.1315
vn -0.0972 0.9865 -0.1315
vn -0.2878 0.9486 -0.1315
vn -0.2878 0.9486 -0.1315
vn -0.4673 0.8743 -0.1315
vn -0.4673 0.8743 -0.1315
vn -0.6289 0.7663 -0.1315
vn -0.6289 0.7663 -0.1315
vn -0.7663 0.6289 -0.1315
vn -0.7663 0.6289 -0.1315
vn -0.8743 0.4673 -0.1315
vn -0.8743 0.4673 -0.1315
vn -0.9486 0.2878 -0.1315
vn -0.9486 0.2878 -0.1315
vn -0.9865 0.0972 -0.1315
vn -0.9865 0.0972 -0.1315
vn -0.9865 -0.0972 -0.1315
vn -0.9865 -0.0972 -0.1315
vn -0.9486 -0.2878 -0.1315
vn -0.9486 -0.2878 -0.1315
vn -0.8743 -0.4673 -0.1315
vn -0.8743 -0.4673 -0.1315
vn -0.7663 -0.6289 -0.1315
vn -0.7663 -0.6289 -0.1315
vn -0.6289 -0.7663 -0.1315
vn -0.6289 -0.7663 -0.1315
vn -0.4673 -0.8743 -0.1315
vn -0.4673 -0.8743 -0.1315
vn -0.2878 -0.9486 -0.1315
vn -0.2878 -0.9486 -0.1315
vn -0.0972 -0.9865 -0.1315
vn -0.0972 -0.9865 -0.1315
vn 0.0972 -0.9865 -0.1315
vn 0.0972 -0.9865 -0.1315
vn 0.2878 -0.9486 -0.1315
vn 0.2878 -0.9486 -0.1315
vn 0.4673 -0.8743 -0.1315
vn 0.4673 -0.8743 -0.1315
vn 0.6289 -0.7663 -0.1315
vn 0.6289 -0.7663 -0.1315
vn 0.7663 -0.6289 -0.1315
vn 0.7663 -0.6289 -0.1315
vn 0.8743 -0.4673 -0.1315
vn 0.8743 -0.4673 -0.1315
vn 0.9486 -0.2878 -0.1315
vn 0.9486 -0.2878 -0.1315
vn 0.9865 -0.0972 -0.1315
vn 0.9865 -0.0972 -0.1315
vn 0.0000 0.0000 -1.0000
vn 0.0000 0.0000 -1.0000
vn 0.0000 0.0000 -1.0000
vn 0.0000 0.0000 -1.0000
vn 0.0000 0.0000 -1.0000
vn 0.0000 0.0000 -1.0000
vn 0.0000 0.0000 -1.0000
vn 0.0000 0.0000 -1.0000
vn 0.0000 0.0000 -1.0000
vn 0.0000 0.0000 -1.0000
vn 0.0000 0.0000 -1.0000
vn 0.0000 0.0000 -1.0000
vn 0.0000 0.0000 -1.0000
vn 0.0000 0.0000 -1.0000
vn 0.0000 0.0000 -1.0000
vn 0.0000 0.0000 -1.0000
vn -0.0000 0.0000 -1.0000
vn 0.0000 0.0000 -1.0000
vn -0.0000 0.0000 -1.0000
vn 0.0000 0.0000 -1.0000
vn -0.0000 0.0000 -1.0000
vn 0.0000 0.0000 -1.0000
vn 0.0000 0.0000 -1.0000
vn -0.0000 0.0000 -1.0000
vn 0.0000 0.0000 -1.0000
vn -0.0000 0.0000 -1.0000
vn 0.0000 0.0000 -1.0000
vn -0.0000 0.0000 -1.0000
vn 0.0000 0.0000 -1.0000
vn -0.0000 0.0000 -1.0000
vn 0.0000 0.0000 -1.0000
vn -0.0000 0.0000 -1.0000
vn 0.0000 -0.0000 -1.0000
vn -0.0000 0.0000 -1.0000
vn 0.0000 -0.0000 -1.0000
vn 0.0000 0.0000 -1.0000
vn 0.0000 -0.0000 -1.0000
vn 0.0000 0.0000 -1.0000
vn 0.0000 0.0000 -1.0000
vn 0.0000 -0.0000 -1.0000
vn 0.0000 0.0000 -1.0000
vn 0.0000 -0.0000 -1.0000
vn 0.0000 0.0000 -1.0000
vn 0.0000 -0.0000 -1.0000
vn 0.0000 0.0000 -1.0000
vn 0.0000 -0.0000 -1.0000
vn 0.0000 0.0000 -1.0000
vn 0.0000 -0.0000 -1.0000
vn 0.0000 0.0000 -1.0000
vn 0.0000 -0.0000 -1.0000
vn 0.0000 0.0000 -1.0000
vn 0.0000 0.0000 -1.0000
vn 0.0000 0.0000 -1.0000
vn 0.0000 0.0000 -1.0000
vn 0.0000 0.0000 -1.0000
vn 0.0000 0.0000 -1.0000
vn 0.0000 0.0000 -1.0000
vn 0.0000 0.0000 -1.0000
vn 0.0000 0.0000 -1.0000
vn 0.0000 0.0000 -1.0000
vn 0.0000 0.0000 -1.0000
vn 0.0000 0.0000 -1.0000
vn 0.0000 0.0000 -1.0000
vn 0.0000 0.0000 -1.0000
vn 0.9952 0.0980 0.0000
vn 0.9952 0.0980 -0.0000
vn 0.9569 0.2903 0.0000
vn 0.9569 0.2903 -0.0000
vn 0.8819 0.4714 0.0000
vn 0.8819 0.4714 -0.0000
vn 0.7730 0.6344 0.0000
vn 0.7730 0.6344 -0.0000
vn 0.6344 0.7730 0.0000
vn 0.6344 0.7730 -0.0000
vn 0.4714 0.8819 0.0000
vn 0.4714 0.8819 -0.0000
vn 0.2903 0.9569 0.0000
vn 0.2903 0.9569 -0.0000
vn 0.0980 0.9952 0.0000
vn 0.0980 0.9952 -0.0000
vn -0.0980 0.9952 0.0000
vn -0.0980 0.9952 0.0000
vn -0.2903 0.9569 0.0000
vn -0.2903 0.9569 0.0000
vn -0.4714 0.8819 0.0000
vn -0.4714 0.8819 0.0000
vn -0.6344 0.7730 0.0000
vn -0.6344 0.7730 0.0000
vn -0.7730 0.6344 0.0000
vn -0.7730 0.6344 0.0000
vn -0.8819 0.4714 0.0000
vn -0.8819 0.4714 0.0000
vn -0.9569 0.2903 0.0000
vn -0.9569 0.2903 0.0000
vn -0.9952 0.0980 0.0000
vn -0.9952 0.0980 0.0000
vn -0.9952 -0.0980 0.0000
vn -0.9952 -0.0980 0.0000
vn -0.9569 -0.2903 0.0000
vn -0.9569 -0.2903 0.0000
vn -0.8819 -0.4714 0.0000
vn -0.8819 -0.4714 0.0000
vn -0.7730 -0.6344 0.0000
vn -0.7730 -0.6344 0.0000
vn -0.6344 -0.7730 0.0000
vn -0.6344 -0.7730 0.0000
vn -0.4714 -0.8819 0.0000
vn -0.4714 -0.8819 0.0000
vn -0.2903 -0.9569 0.0000
vn -0.2903 -0.9569 0.0000
vn -0.0980 -0.9952 0.0000
vn -0.0980 -0.9952 0.0000
vn 0.0980 -0.9952 0.0000
vn 0.0980 -0.9952 0.0000
vn 0.2903 -0.9569 0.0000
vn 0.2903 -0.9569 0.0000
vn 0.4714 -0.8819 0.0000
vn 0.4714 -0.8819 0.0000
vn 0.6344 -0.7730 0.0000
vn 0.6344 -0.7730 0.0000
vn 0.7730 -0.6344 0.0000
vn 0.7730 -0.6344 0.0000
vn 0.8819 -0.4714 0.0000
vn 0.8819 -0.4714 0.0000
vn 0.9569 -0.2903 0.0000
vn 0.9569 -0.2903 0.0000
vn 0.9952 -0.0980 0.0000
vn 0.9952 -0.0980 0.0000
vn 0.0000 0.0000 1.0000
vn 0.0000 0.0000 1.0000
vn 0.0000 0.0000 1.0000
vn 0.0000 0.0000 1.0000
vn 0.0000 0.0000 1.0000
vn 0.0000 0.0000 1.0000
vn 0.0000 0.0000 1.0000
vn 0.0000 0.0000 1.0000
vn 0.0000 0.0000 1.0000
vn 0.0000 0.0000 1.0000
vn 0.0000 0.0000 1.0000
vn 0.0000 0.0000 1.0000
vn 0.0000 0.0000 1.0000
vn 0.0000 0.0000 1.0000
vn 0.0000 0.0000 1.0000
vn 0.0000 0.0000 1.0000
vn 0.0000 0.0000 1.0000
vn 0.0000 0.0000 1.0000
vn 0.0000 0.0000 1.0000
vn 0.0000 0.0000 1.0000
vn 0.0000 0.0000 1.0000
vn 0.0000 0.0000 1.0000
vn 0.0000 0.0000 1.0000
vn 0.0000 0.0000 1.0000
vn 0.0000 0.0000 1.0000
vn 0.0000 0.0000 1.0000
vn 0.0000 0.0000 1.0000
vn 0.0000 0.0000 1.0000
vn 0.0000 0.0000 1.0000
vn 0.0000 0.0000 1.0000
vn 0.0000 0.0000 1.0000
vn 0.0000 0.0000 1.0000
vn 0.0000 0.0000 1.0000
vn 0.0000 0.0000 1.0000
vn 0.0000 0.0000 1.0000
vn -0.0000 0.0000 1.0000
vn 0.0000 0.0000 1.0000
vn -0.0000 0.0000 1.0000
vn 0.0000 0.0000 1.0000
vn -0.0000 0.0000 1.0000
vn 0.0000 0.0000 1.0000
vn -0.0000 0.0000 1.0000
vn -0.0000 0.0000 1.0000
vn 0.0000 0.0000 1.0000
vn -0.0000 0.0000 1.0000
vn 0.0000 0.0000 1.0000
vn -0.0000 0.0000 1.0000
vn 0.0000 0.0000 1.0000
vn 0.0000 0.0000 1.0000
vn 0.0000 0.0000 1.0000
vn 0.0000 0.0000 1.0000
vn 0.0000 -0.0000 1.0000
vn 0.0000 0.0000 1.0000
vn 0.0000 -0.0000 1.0000
vn 0.0000 0.0000 1.0000
vn 0.0000 -0.0000 1.0000
vn 0.0000 0.0000 1.0000
vn 0.0000 -0.0000 1.0000
vn 0.0000 -0.0000 1.0000
vn 0.0000 0.0000 1.0000
vn 0.0000 -0.0000 1.0000
vn 0.0000 0.0000 1.0000
vn 0.0000 -0.0000 1.0000
vn 0.0000 0.0000 1.0000
vn 0.0000 0.0000 -1.0000
vn 0.0000 0.0000 -1.0000
vn 0.0000 0.0000 -1.0000
vn 0.0000 0.0000 -1.0000
vn 0.0000 0.0000 -1.0000
vn 0.0000 0.0000 -1.0000
vn 0.0000 0.0000 -1.0000
vn 0.0000 0.0000 -1.0000
vn 0.0000 0.0000 -1.0000
vn 0.0000 0.0000 -1.0000
vn 0.0000 0.0000 -1.0000
vn 0.0000 0.0000 -1.0000
vn 0.0000 0.0000 -1.0000
vn 0.0000 0.0000 -1.0000
vn 0.0000 0.0000 -1.0000
vn 0.0000 0.0000 -1.0000
vn -0.0000 0.0000 -1.0000
vn 0.0000 0.0000 -1.0000
vn 0.0000 0.0000 -1.0000
vn 0.0000 0.0000 -1.0000
vn 0.0000 0.0000 -1.0000
vn 0.0000 0.0000 -1.0000
vn 0.0000 0.0000 -1.0000
vn 0.0000 0.0000 -1.0000
vn 0.0000 -0.0000 -1.0000
vn 0.0000 0.0000 -1.0000
vn 0.0000 0.0000 -1.0000
vn 0.0000 0.0000 -1.0000
vn 0.0000 0.0000 -1.0000
vn 0.0000 0.0000 -1.0000
vn 0.0000 0.0000 -1.0000
vn 0.0000 0.0000 -1.0000
vn 0.0000 0.0000 1.0000
vn 0.0000 0.0000 1.0000
vn 0.0000 0.0000 1.0000
vn 0.0000 0.0000 1.0000
vn 0.0000 0.0000 1.0000
vn 0.0000 0.0000 1.0000
vn 0.0000 0.0000 1.0000
vn 0.0000 0.0000 1.0000
vn 0.0000 -0.0000 1.0000
vn 0.0000 0.0000 1.0000
vn 0.0000 0.0000 1.0000
vn 0.0000 0.0000 1.0000
vn 0.0000 0.0000 1.0000
vn 0.0000 0.0000 1.0000
vn 0.0000 0.0000 1.0000
vn 0.0000 0.0000 1.0000
vn 0.0000 0.0000 1.0000
vn 0.0000 0.0000 1.0000
vn 0.0000 0.0000 1.0000
vn 0.0000 0.0000 1.0000
vn 0.0000 0.0000 1.0000
vn 0.0000 0.0000 1.0000
vn 0.0000 0.0000 1.0000
vn 0.0000 0.0000 1.0000
vn 0.0000 0.0000 1.0000
vn 0.0000 0.0000 1.0000
vn 0.0000 0.0000 1.0000
vn 0.0000 0.0000 1.0000
vn 0.0000 0.0000 1.0000
vn 0.0000 0.0000 1.0000
vn 0.0000 0.0000 1.0000
vn -0.0000 0.0000 1.0000
f 1//1 2//1 34//1
f 1//2 34//2 33//2
f 2//3 3//3 35//3
f 2//4 35//4 34//4
f 3//5 4//5 36//5
f 3//6 36//6 35//6
f 4//7 5//7 37//7
f 4//8 37//8 36//8
f 5//9 6//9 38//9
f 5//10 38//10 37//10
f 6//11 7//11 39//11
f 6//12 39//12 38//12
f 7//13 8//13 40//13
f 7//14 40//14 39//14
f 8//15 9//15 41//15
f 8//16 41//16 40//16
f 9//17 10//17 42//17
f 9//18 42//18 41//18
f 10//19 11//19 43//19
f 10//20 43//20 42//20
f 11//21 12//21 44//21
f 11//22 44//22 43//22
f 12//23 13//23 45//23
f 12//24 45//24 44//24
f 13//25 14//25 46//25
f 13//26 46//26 45//26
f 14//27 15//27 47//27
f 14//28 47//28 46//28
f 15//29 16//29 48//29
f 15//30 48//30 47//30
f 16//31 17//31 49//31
f 16//32 49//32 48//32
f 17//33 18//33 50//33
f 17//34 50//34 49//34
f 18//35 19//35 51//35
f 18//36 51//36 50//36
f 19//37 20//37 52//37
f 19//38 52//38 51//38
f 20//39 21//39 53//39
f 20//40 53//40 52//40
f 21//41 22//41 54//41
f 21//42 54//42 53//42
f 22//43 23//43 55//43
f 22//44 55//44 54//44
f 23//45 24//45 56//45
f 23//46 56//46 55//46
f 24//47 25//47 57//47
f 24//48 57//48 56//48
f 25//49 26//49 58//49
f 25//50 58//50 57//50
f 26//51 27//51 59//51
f 26//52 59//52 58//52
f 27//53 28//53 60//53
f 27//54 60//54 59//54
f 28//55 29//55 61//55
f 28//56 61//56 60//56
f 29//57 30//57 62//57
f 29//58 62//58 61//58
f 30//59 31//59 63//59
f 30//60 63//60 62//60
f 31//61 32//61 64//61
f 31//62 64//62 63//62
f 32//63 1//63 33//63
f 32//64 33//64 64//64
f 33//65 34//65 66//65
f 33//66 66//66 65//66
f 34//67 35//67 67//67
f 34//68 67//68 66//68
f 35//69 36//69 68//69
f 35//70 68//70 67//70
f 36//71 37//71 69//71
f 36//72 69//72 68//72
f 37//73 38//73 70//73
f 37//74 70//74 69//74
f 38//75 39//75 71//75
f 38//76 71//76 70//76
f 39//77 40//77 72//77
f 39//78 72//78 71//78
f 40//79 41//79 73//79
f 40//80 73//80 72//80
f 41//81 42//81 74//81
f 41//82 74//82 73//82
f 42//83 43//83 75//83
f 42//84 75//84 74//84
f 43//85 44//85 76//85
f 43//86 76//86 75//86
f 44//87 45//87 77//87
f 44//88 77//88 76//88
f 45//89 46//89 78//89
f 45//90 78//90 77//90
f 46//91 47//91 79//91
f 46//92 79//92 78//92
f 47//93 48//93 80//93
f 47//94 80//94 79//94
f 48//95 49//95 81//95
f 48//96 81//96 80//96
f 49//97 50//97 82//97
f 49//98 82//98 81//98
f 50//99 51//99 83//99
f 50//100 83//100 82//100
f 51//101 52//101 84//101
f 51//102 84//102 83//102
f 52//103 53//103 85//103
f 52//104 85//104 84//104
f 53//105 54//105 86//105
f 53//106 86//106 85//106
f 54//107 55//107 87//107
f 54//108 87//108 86//108
f 55//109 56//109 88//109
f 55//110 88//110 87//110
f 56//111 57//111 89//111
f 56//112 89//112 88//112
f 57//113 58//113 90//113
f 57//114 90//114 89//114
f 58//115 59//115 91//115
f 58//116 91//116 90//116
f 59//117 60//117 92//117
f 59//118 92//118 91//118
f 60//119 61//119 93//119
f 60//120 93//120 92//120
f 61//121 62//121 94//121
f 61//122 94//122 93//122
f 62//123 63//123 95//123
f 62//124 95//124 94//124
f 63//125 64//125 96//125
f 63//126 96//126 95//126
f 64//127 33//127 65//127
f 64//128 65//128 96//128
f 65//129 66//129 98//129
f 65//130 98//130 97//130
f 66//131 67//131 99//131
f 66//132 99//132 98//132
f 67//133 68//133 100//133
f 67//134 100//134 99//134
f 68//135 69//135 101//135
f 68//136 101//136 100//136
f 69//137 70//137 102//137
f 69//138 102//138 101//138
f 70//139 71//139 103//139
f 70//140 103//140 102//140
f 71//141 72//141 104//141
f 71//142 104//142 103//142
f 72//143 73//143 105//143
f 72//144 105//144 104//144
f 73//145 74//145 106//145
f 73//146 106//146 105//146
f 74//147 75//147 107//147
f 74//148 107//148 106//148
f 75//149 76//149 108//149
f 75//150 108//150 107//150
f 76//151 77//151 109//151
f 76//152 109//152 108//152
f 77//153 78//153 110//153
f 77//154 110//154 109//154
f 78//155 79//155 111//155
f 78//156 111//156 110//156
f 79//157 80//157 112//157
f 79//158 112//158 111//158
f 80//159 81//159 113//159
f 80//160 113//160 112//160
f 81//161 82//161 114//161
f 81//162 114//162 113//162
f 82//163 83//163 115//163
f 82//164 115//164 114//164
f 83//165 84//165 116//165
f 83//166 116//166 115//166
f 84//167 85//167 117//167
f 84//168 117//168 116//168
f 85//169 86//169 118//169
f 85//170 118//170 117//170
f 86//171 87//171 119//171
f 86//172 119//172 118//172
f 87//173 88//173 120//173
f 87//174 120//174 119//174
f 88//175 89//175 121//175
f 88//176 121//176 120//176
f 89//177 90//177 122//177
f 89//178 122//178 121//178
f 90//179 91//179 123//179
f 90//180 123//180 122//180
f 91//181 92//181 124//181
f 91//182 124//182 123//182
f 92//183 93//183 125//183
f 92//184 125//184 124//184
f 93//185 94//185 126//185
f 93//186 126//186 125//186
f 94//187 95//187 127//187
f 94//188 127//188 126//188
f 95//189 96//189 128//189
f 95//190 128//190 127//190
f 96//191 65//191 97//191
f 96//192 97//192 128//192
f 97//193 98//193 130//193
f 97//194 130//194 129//194
f 98//195 99//195 131//195
f 98//196 131//196 130//196
f 99//197 100//197 132//197
f 99//198 132//198 131//198
f 100//199 101//199 133//199
f 100//200 133//200 132//200
f 101//201 102//201 134//201
f 101//202 134//202 133//202
f 102//203 103//203 135//203
f 102//204 135//204 134//204
f 103//205 104//205 136//205
f 103//206 136//206 135//206
f 104//207 105//207 137//207
f 104//208 137//208 136//208
f 105//209 106//209 138//209
f 105//210 138//210 137//210
f 106//211 107//211 139//211
f 106//212 139//212 138//212
f 107//213 108//213 140//213
f 107//214 140//214 139//214
f 108//215 109//215 141//215
f 108//216 141//216 140//216
f 109//217 110//217 142//217
f 109//218 142//218 141//218
f 110//219 111//219 143//219
f 110//220 143//220 142//220
f 111//221 112//221 144//221
f 111//222 144//222 143//222
f 112//223 113//223 145//223
f 112//224 145//224 144//224
f 113//225 114//225 146//225
f 113//226 146//226 145//226
f 114//227 115//227 147//227
f 114//228 147//228 146//228
f 115//229 116//229 148//229
f 115//230 148//230 147//230
f 116//231 117//231 149//231
f 116//232 149//232 148//232
f 117//233 118//233 150//233
f 117//234 150//234 149//234
f 118//235 119//235 151//235
f 118//236 151//236 150//236
f 119//237 120//237 152//237
f 119//238 152//238 151//238
f 120//239 121//239 153//239
f 120//240 153//240 152//240
f 121//241 122//241 154//241
f 121//242 154//242 153//242
f 122//243 123//243 155//243
f 122//244 155//244 154//244
f 123//245 124//245 156//245
f 123//246 156//246 155//246
f 124//247 125//247 157//247
f 124//248 157//248 156//248
f 125//249 126//249 158//249
f 125//250 158//250 157//250
f 126//251 127//251 159//251
f 126//252 159//252 158//252
f 127//253 128//253 160//253
f 127//254 160//254 159//254
f 128//255 97//255 129//255
f 128//256 129//256 160//256
f 161//257 2//257 1//257
f 161//258 3//258 2//258
f 161//259 4//259 3//259
f 161//260 5//260 4//260
f 161//261 6//261 5//261
f 161//262 7//262 6//262
f 161//263 8//263 7//263
f 161//264 9//264 8//264
f 161//265 10//265 9//265
f 161//266 11//266 10//266
f 161//267 12//267 11//267
f 161//268 13//268 12//268
f 161//269 14//269 13//269
f 161//270 15//270 14//270
f 161//271 16//271 15//271
f 161//272 17//272 16//272
f 161//273 18//273 17//273
f 161//274 19//274 18//274
f 161//275 20//275 19//275
f 161//276 21//276 20//276
f 161//277 22//277 21//277
f 161//278 23//278 22//278
f 161//279 24//279 23//279
f 161//280 25//280 24//280
f 161//281 26//281 25//281
f 161//282 27//282 26//282
f 161//283 28//283 27//283
f 161//284 29//284 28//284
f 161//285 30//285 29//285
f 161//286 31//286 30//286
f 161//287 32//287 31//287
f 161//288 1//288 32//288
f 194//289 162//289 163//289
f 194//290 163//290 164//290
f 194//291 164//291 165//291
f 194//292 165//292 166//292
f 194//293 166//293 167//293
f 194//294 167//294 168//294
f 194//295 168//295 169//295
f 194//296 169//296 170//296
f 194//297 170//297 171//297
f 194//298 171//298 172//298
f 194//299 172//299 173//299
f 194//300 173//300 174//300
f 194//301 174//301 175//301
f 194//302 175//302 176//302
f 194//303 176//303 177//303
f 194//304 177//304 178//304
f 194//305 178//305 179//305
f 194//306 179//306 180//306
f 194//307 180//307 181//307
f 194//308 181//308 182//308
f 194//309 182//309 183//309
f 194//310 183//310 184//310
f 194//311 184//311 185//311
f 194//312 185//312 186//312
f 194//313 186//313 187//313
f 194//314 187//314 188//314
f 194//315 188//315 189//315
f 194//316 189//316 190//316
f 194//317 190//317 191//317
f 194//318 191//318 192//318
f 194//319 192//319 193//319
f 194//320 193//320 162//320
